<?xml version="1.0" encoding="utf-8"?>
<!-- Generator: Adobe Illustrator 16.0.0, SVG Export Plug-In . SVG Version: 6.00 Build 0)  -->
<!DOCTYPE svg PUBLIC "-//W3C//DTD SVG 1.1//EN" "http://www.w3.org/Graphics/SVG/1.1/DTD/svg11.dtd">
<svg version="1.1" id="Layer_1" xmlns="http://www.w3.org/2000/svg" xmlns:xlink="http://www.w3.org/1999/xlink" x="0px" y="0px"
	 width="466.667px" height="239.3px" viewBox="0 0 466.667 239.3" enable-background="new 0 0 466.667 239.3" xml:space="preserve">
<rect y="24" fill="none" width="466.666" height="105.777"/>
<text transform="matrix(1 0 0 1 0 124.8003)"><tspan x="0" y="0" fill="#F1C817" font-family="'CoolveticaRg-Regular'" font-size="150" letter-spacing="3">SHOC</tspan><tspan x="376.668" y="0" fill="#F1C817" font-family="'CoolveticaRg-Regular'" font-size="150">K</tspan></text>
<text transform="matrix(1 0 0 1 0 216)" fill="#F1C817" font-family="'CoolveticaRg-Regular'" font-size="100">EXCHANGE</text>
<ellipse fill="#F1C817" cx="228.376" cy="75.112" rx="33.833" ry="39.333"/>
<g id="mtCvfV.tif">
	<g>
		<path fill-rule="evenodd" clip-rule="evenodd" fill="#1A181D" d="M207.485,66.677c2.31-5.558,4.664-11.097,6.92-16.676
			c4.307-10.647,8.57-21.312,12.814-31.983c0.426-1.069,0.775-1.849,2.193-1.835c11.055,0.111,22.109,0.146,33.165,0.212
			c0.136,0.001,0.271,0.097,0.726,0.269c-7.532,10.581-15.013,21.09-22.769,31.985c7.479,0,14.536,0,22.25,0
			C244.94,68.447,227.53,87.764,210.12,107.08c-0.128-0.082-0.256-0.163-0.384-0.245c6.125-13.142,12.251-26.285,18.501-39.697
			c-7.143,0-13.947,0-20.752,0C207.485,66.983,207.485,66.83,207.485,66.677z"/>
	</g>
</g>
</svg>
