<?xml version="1.0" encoding="utf-8"?>
<!-- Generator: Adobe Illustrator 16.0.0, SVG Export Plug-In . SVG Version: 6.00 Build 0)  -->
<!DOCTYPE svg PUBLIC "-//W3C//DTD SVG 1.1//EN" "http://www.w3.org/Graphics/SVG/1.1/DTD/svg11.dtd">
<svg version="1.1" id="Layer_1" xmlns="http://www.w3.org/2000/svg" xmlns:xlink="http://www.w3.org/1999/xlink" x="0px" y="0px"
	 width="595.28px" height="841.89px" viewBox="0 0 595.28 841.89" enable-background="new 0 0 595.28 841.89" xml:space="preserve">
<rect fill="#9D91C6" width="595.28" height="841.886"/>
<rect x="29.82" y="23.477" fill="#FFFFFF" width="536.943" height="793.784"/>
<rect x="29.82" y="23.477" fill="none" stroke="#46464D" stroke-width="8" width="536.943" height="793.784"/>
<rect x="108.717" y="346.278" fill="#9D91C6" width="377.869" height="377.869"/>
<rect x="108.717" y="346.278" fill="none" stroke="#46464D" stroke-width="8" width="377.869" height="377.869"/>
<polyline fill="none" stroke="#FEC053" stroke-width="8" points="496.776,770.683 529.24,770.683 529.24,304.495 66.062,304.495 
	66.062,770.683 99.615,770.683 "/>
<text transform="matrix(1 0 0 1 114.8452 780.7266)"><tspan x="0" y="0" fill="#9D91C6" stroke="#9D91C6" stroke-miterlimit="10" font-family="'Neon80s'" font-size="38.1381">libe</tspan><tspan x="57.747" y="0" fill="#9D91C6" stroke="#9D91C6" stroke-miterlimit="10" font-family="'Neon80s'" font-size="38.1381" letter-spacing="-2">r</tspan><tspan x="69.688" y="0" fill="#9D91C6" stroke="#9D91C6" stroke-miterlimit="10" font-family="'Neon80s'" font-size="38.1381" letter-spacing="-2">a</tspan><tspan x="89.593" y="0" fill="#9D91C6" stroke="#9D91C6" stroke-miterlimit="10" font-family="'Neon80s'" font-size="38.1381" letter-spacing="-2">t</tspan><tspan x="101.84" y="0" fill="#9D91C6" stroke="#9D91C6" stroke-miterlimit="10" font-family="'Neon80s'" font-size="38.1381">e + a</tspan><tspan x="185.472" y="0" fill="#9D91C6" stroke="#9D91C6" stroke-miterlimit="10" font-family="'Neon80s'" font-size="38.1381" letter-spacing="-1">c</tspan><tspan x="204.414" y="0" fill="#9D91C6" stroke="#9D91C6" stroke-miterlimit="10" font-family="'Neon80s'" font-size="38.1381">cumul</tspan><tspan x="314.376" y="0" fill="#9D91C6" stroke="#9D91C6" stroke-miterlimit="10" font-family="'Neon80s'" font-size="38.1381" letter-spacing="-2">a</tspan><tspan x="334.244" y="0" fill="#9D91C6" stroke="#9D91C6" stroke-miterlimit="10" font-family="'Neon80s'" font-size="38.1381" letter-spacing="-2">t</tspan><tspan x="346.49" y="0" fill="#9D91C6" stroke="#9D91C6" stroke-miterlimit="10" font-family="'Neon80s'" font-size="38.1381">e</tspan></text>
<text transform="matrix(1 0 0 1 69.5557 264.8755)"><tspan x="0" y="0" fill="#9D91C6" stroke="#9D91C6" stroke-miterlimit="10" font-family="'Neon80s'" font-size="50.1817" letter-spacing="-3">t</tspan><tspan x="16.114" y="0" fill="#9D91C6" stroke="#9D91C6" stroke-miterlimit="10" font-family="'Neon80s'" font-size="50.1817" letter-spacing="-3">r</tspan><tspan x="31.827" y="0" fill="#9D91C6" stroke="#9D91C6" stroke-miterlimit="10" font-family="'Neon80s'" font-size="50.1817">anspa</tspan><tspan x="171.688" y="0" fill="#9D91C6" stroke="#9D91C6" stroke-miterlimit="10" font-family="'Neon80s'" font-size="50.1817" letter-spacing="-3">r</tspan><tspan x="187.401" y="0" fill="#9D91C6" stroke="#9D91C6" stroke-miterlimit="10" font-family="'Neon80s'" font-size="50.1817">e</tspan><tspan x="214.281" y="0" fill="#9D91C6" stroke="#9D91C6" stroke-miterlimit="10" font-family="'Neon80s'" font-size="50.1817" letter-spacing="-3">n</tspan><tspan x="240.471" y="0" fill="#9D91C6" stroke="#9D91C6" stroke-miterlimit="10" font-family="'Neon80s'" font-size="50.1817">t banking</tspan></text>
<text transform="matrix(1 0 0 1 60.5317 201.7324)"><tspan x="0" y="0" fill="#9D91C6" stroke="#9D91C6" stroke-width="9.2" stroke-miterlimit="10" font-family="'Neon80s'" font-size="225" letter-spacing="1">luci</tspan><tspan x="345.186" y="0" fill="#9D91C6" stroke="#9D91C6" stroke-width="9.2" stroke-miterlimit="10" font-family="'Neon80s'" font-size="225">d</tspan></text>
<path fill="none" stroke="#FFFFFF" stroke-miterlimit="10" d="M343.591,101.136c0,0,3.156,2.5,6.906,8.156"/>
<rect x="362.297" y="86.235" fill="#FFFFFF" width="46.781" height="21.375"/>
<path fill="#9C91C6" d="M366.961,108.231c0,0-0.42-9.244,9.062-13.827c0,0,6.184-3.344,13.626,0.036c0,0,8.935,3.757,8.935,13.792"
	/>
<g>
	<defs>
		<rect id="SVGID_1_" x="144" y="382.562" width="305.296" height="305.302"/>
	</defs>
	<clipPath id="SVGID_2_">
		<use xlink:href="#SVGID_1_"  overflow="visible"/>
	</clipPath>
	<path clip-path="url(#SVGID_2_)" fill="none" stroke="#FFF200" stroke-width="1.761" stroke-miterlimit="10" d="M294.516,535.393
		c0.103,1.182,1.144,2.055,2.326,1.953c1.178-0.105,2.055-1.145,1.951-2.326c-0.103-1.178-1.147-2.051-2.325-1.947
		C295.286,533.176,294.413,534.217,294.516,535.393z"/>
	<path clip-path="url(#SVGID_2_)" fill="none" stroke="#46464D" stroke-width="5.284" stroke-miterlimit="10" d="M237.399,525.299
		c-25.351-21.271-28.647-59.055-7.376-84.406c21.268-25.348,59.052-28.662,84.403-7.389c25.346,21.27,28.658,59.064,7.389,84.414
		C300.546,543.264,262.749,546.57,237.399,525.299z M278.177,637.73c-25.35-21.268-28.647-59.057-7.379-84.408
		c21.27-25.348,59.058-28.658,84.405-7.389c25.352,21.273,28.658,59.068,7.392,84.412
		C341.322,655.699,303.527,659.008,278.177,637.73z M285.547,593.459c-21.273,25.348-59.06,28.646-84.407,7.379
		c-25.349-21.271-28.66-59.059-7.392-84.408c21.271-25.346,59.07-28.662,84.42-7.391
		C303.515,530.307,306.816,568.107,285.547,593.459z M397.979,552.678c-21.273,25.352-59.059,28.648-84.404,7.381
		c-25.352-21.271-28.667-59.055-7.394-84.408c21.272-25.348,59.067-28.654,84.415-7.385
		C415.943,489.533,419.25,527.328,397.979,552.678z M247.699,569.566c-32.965,2.883-62.016-21.506-64.9-54.467
		c-2.884-32.967,21.491-62.027,54.456-64.91c32.965-2.885,62.032,21.5,64.916,54.467
		C305.055,537.615,280.664,566.682,247.699,569.566z M356.037,620.236c-32.969,2.885-62.019-21.508-64.903-54.471
		c-2.884-32.965,21.491-62.025,54.459-64.908c32.966-2.885,62.029,21.5,64.913,54.465
		C413.389,588.283,389.002,617.352,356.037,620.236z M329.941,583.715c2.885,32.961-21.504,62.016-54.466,64.898
		c-32.967,2.887-62.027-21.492-64.911-54.455c-2.884-32.967,21.501-62.031,54.467-64.916
		C297.993,526.357,327.059,550.748,329.941,583.715z M380.607,475.379c2.885,32.965-21.504,62.018-54.465,64.9
		c-32.966,2.885-62.027-21.492-64.911-54.457c-2.884-32.967,21.501-62.029,54.465-64.914
		C348.66,418.025,377.725,442.412,380.607,475.379z"/>
	<path clip-path="url(#SVGID_2_)" fill="none" stroke="#FFFFFF" stroke-width="42" stroke-miterlimit="10" d="M427.787,523.736
		c6.336,72.426-47.234,136.281-119.662,142.619c-72.425,6.336-136.279-47.248-142.616-119.674
		c-6.336-72.424,47.245-136.275,119.669-142.611C357.607,397.734,421.451,451.311,427.787,523.736z"/>
	<path clip-path="url(#SVGID_2_)" fill="#FEC053" d="M304.545,537.045c0.371,4.24-2.768,7.982-7.009,8.354
		c-4.238,0.371-7.975-2.77-8.346-7.01c-0.371-4.242,2.765-7.979,7.002-8.35C300.433,529.668,304.174,532.803,304.545,537.045"/>
	<path clip-path="url(#SVGID_2_)" fill="#FEC053" d="M304.484,537.051c0.369,4.207-2.746,7.92-6.954,8.289
		c-4.205,0.367-7.913-2.75-8.281-6.955c-0.369-4.211,2.743-7.918,6.947-8.287C300.404,529.73,304.117,532.842,304.484,537.051"/>
	<path clip-path="url(#SVGID_2_)" fill="none" stroke="#FEC053" stroke-width="8" stroke-miterlimit="10" d="M304.484,537.051
		c0.369,4.207-2.746,7.92-6.954,8.289c-4.205,0.367-7.913-2.75-8.281-6.955c-0.369-4.211,2.743-7.918,6.947-8.287
		C300.404,529.73,304.117,532.842,304.484,537.051z"/>
</g>
</svg>
