<?xml version="1.0" encoding="utf-8"?>
<!-- Generator: Adobe Illustrator 16.0.0, SVG Export Plug-In . SVG Version: 6.00 Build 0)  -->
<!DOCTYPE svg PUBLIC "-//W3C//DTD SVG 1.1//EN" "http://www.w3.org/Graphics/SVG/1.1/DTD/svg11.dtd">
<svg version="1.1" id="Layer_1" xmlns="http://www.w3.org/2000/svg" xmlns:xlink="http://www.w3.org/1999/xlink" x="0px" y="0px"
	 width="250.333px" height="187px" viewBox="0 0 250.333 187" enable-background="new 0 0 250.333 187" xml:space="preserve">
<circle stroke="#000000" stroke-miterlimit="10" cx="93.603" cy="114.094" r="1.389"/>
<circle fill-rule="evenodd" clip-rule="evenodd" fill="none" stroke="#000000" stroke-width="4" stroke-miterlimit="10" cx="71.51" cy="78.013" r="25.333"/>
<circle fill-rule="evenodd" clip-rule="evenodd" fill="none" stroke="#000000" stroke-miterlimit="10" cx="71.511" cy="66.507" r="13.827"/>
<circle fill-rule="evenodd" clip-rule="evenodd" fill="none" stroke="#000000" stroke-miterlimit="10" cx="71.511" cy="90.271" r="13.827"/>
<circle fill-rule="evenodd" clip-rule="evenodd" fill="none" stroke="#000000" stroke-miterlimit="10" cx="60.004" cy="78.014" r="13.827"/>
<circle fill-rule="evenodd" clip-rule="evenodd" fill="none" stroke="#000000" stroke-miterlimit="10" cx="83.017" cy="78.013" r="13.827"/>
<circle fill-rule="evenodd" clip-rule="evenodd" fill="none" stroke="#000000" stroke-miterlimit="10" cx="63.109" cy="69.758" r="13.827"/>
<circle fill-rule="evenodd" clip-rule="evenodd" fill="none" stroke="#000000" stroke-miterlimit="10" cx="79.912" cy="86.562" r="13.827"/>
<circle fill-rule="evenodd" clip-rule="evenodd" fill="none" stroke="#000000" stroke-miterlimit="10" cx="63.109" cy="86.031" r="13.827"/>
<circle fill-rule="evenodd" clip-rule="evenodd" fill="none" stroke="#000000" stroke-miterlimit="10" cx="79.381" cy="69.759" r="13.827"/>
<circle stroke="#000000" stroke-miterlimit="10" cx="91.934" cy="109.097" r="2.264"/>
<circle stroke="#000000" stroke-miterlimit="10" cx="59.024" cy="72.735" r="2.157"/>
<g>
	<path fill="none" d="M88.316,140.508c-0.146,0.132-0.229,0.201-0.229,0.201C88.165,140.646,88.239,140.575,88.316,140.508
		c0.285-0.248,0.562-0.512,0.824-0.8c0.571-0.626,1.088-1.344,1.559-2.118c-0.911,1.296-1.989,2.519-3.271,3.652
		c1.376-0.933,2.659-2.323,3.777-3.963c-0.767,1.028-1.501,1.851-2.064,2.429C88.787,140.072,88.5,140.341,88.316,140.508z"/>
	<path fill-rule="evenodd" clip-rule="evenodd" d="M97.405,121.082c-0.892-0.971-1.403-2.289-2.095-3.444
		c-0.163-0.272-0.349-0.531-0.523-0.796c-0.067,0.026-0.135,0.053-0.202,0.079c0.18,0.88,0.358,1.761,0.469,2.305
		c-1.656,1.067-3.183,2.051-4.509,2.905c-0.085,1.802-0.005,3.675-0.319,5.479c-0.19,1.095,0.056,2.122,1.378,2.431
		c-0.311,0.265-0.515,0.529-0.784,0.656c-2.362,1.114-3.82,2.863-4.21,5.517c-0.145,0.983-0.636,1.915-1.004,2.97
		c0.119,0.084,0.382,0.271,0.759,0.537c-0.65,0.298-1.823,0.367-0.82,1.207c-2.142,1.72-4.191,3.363-6.081,4.88
		c2.624,1.064,6.628-0.358,11.57-4.513c-0.158,0.622-0.269,1.06-0.38,1.496c0.085,0.098,0.17,0.196,0.255,0.295
		c0.947-0.774,2.013-1.443,2.807-2.352c0.783-0.896,1.681-1.357,2.776-1.653c0.328-0.089,0.768-0.486,0.807-0.787
		c0.146-1.128,0.146-2.274,0.207-3.547c0.146,0.559,0.274,1.051,0.445,1.702C101.122,132.291,100.684,124.65,97.405,121.082z
		 M91.205,137.28c-1.118,1.64-2.401,3.03-3.777,3.963c1.282-1.134,2.36-2.356,3.271-3.652c3.598-5.918,4.382-15.306,4.382-15.306
		C96.319,128.769,93.604,134.058,91.205,137.28z"/>
	<path fill="#E7E7E7" d="M88.316,140.508c-0.077,0.066-0.151,0.138-0.229,0.201C88.087,140.709,88.17,140.64,88.316,140.508z"/>
	<path fill="#E7E7E7" d="M89.141,139.708c-0.263,0.288-0.539,0.552-0.824,0.8C88.5,140.341,88.787,140.072,89.141,139.708z"/>
	<path fill="none" d="M90.699,137.59c-0.471,0.774-0.987,1.492-1.559,2.118c0.563-0.578,1.298-1.4,2.064-2.429
		c2.399-3.222,5.114-8.511,3.876-14.995C95.081,122.285,94.297,131.672,90.699,137.59z"/>
</g>
<circle fill="none" stroke="#000000" stroke-width="4" stroke-miterlimit="10" cx="71.51" cy="78.015" r="31.621"/>
<circle stroke="#000000" stroke-miterlimit="10" cx="192.576" cy="113.167" r="1.389"/>
<circle fill-rule="evenodd" clip-rule="evenodd" fill="none" stroke="#000000" stroke-width="4" stroke-miterlimit="10" cx="170.483" cy="77.085" r="25.333"/>
<circle stroke="#000000" stroke-miterlimit="10" cx="190.907" cy="108.169" r="2.264"/>
<g>
	<path fill="none" d="M187.289,139.581c-0.146,0.132-0.229,0.201-0.229,0.201C187.138,139.718,187.212,139.647,187.289,139.581
		c0.285-0.248,0.562-0.512,0.824-0.8c0.571-0.626,1.088-1.344,1.559-2.118c-0.911,1.296-1.989,2.519-3.271,3.652
		c1.376-0.933,2.659-2.323,3.777-3.963c-0.767,1.028-1.501,1.851-2.064,2.429C187.76,139.144,187.473,139.414,187.289,139.581z"/>
	<path fill-rule="evenodd" clip-rule="evenodd" d="M196.378,120.154c-0.892-0.971-1.403-2.289-2.095-3.444
		c-0.163-0.272-0.349-0.531-0.523-0.796c-0.067,0.026-0.135,0.053-0.202,0.079c0.18,0.88,0.358,1.761,0.469,2.305
		c-1.656,1.067-3.183,2.051-4.509,2.905c-0.085,1.802-0.005,3.675-0.319,5.479c-0.19,1.095,0.056,2.122,1.378,2.431
		c-0.311,0.265-0.515,0.529-0.784,0.656c-2.362,1.114-3.82,2.863-4.21,5.517c-0.145,0.983-0.636,1.915-1.004,2.97
		c0.119,0.084,0.382,0.271,0.759,0.537c-0.65,0.298-1.823,0.367-0.82,1.207c-2.142,1.72-4.191,3.363-6.081,4.88
		c2.624,1.064,6.628-0.358,11.57-4.513c-0.158,0.622-0.269,1.06-0.38,1.496c0.085,0.098,0.17,0.196,0.255,0.295
		c0.947-0.774,2.013-1.443,2.807-2.352c0.783-0.896,1.681-1.357,2.776-1.653c0.328-0.089,0.768-0.486,0.807-0.787
		c0.146-1.128,0.146-2.274,0.207-3.547c0.146,0.559,0.274,1.051,0.445,1.702C200.095,131.363,199.656,123.722,196.378,120.154z
		 M190.178,136.352c-1.118,1.64-2.401,3.03-3.777,3.963c1.282-1.134,2.36-2.356,3.271-3.652c3.598-5.918,4.382-15.306,4.382-15.306
		C195.292,127.841,192.577,133.13,190.178,136.352z"/>
	<path fill="#E7E7E7" d="M187.289,139.581c-0.077,0.066-0.151,0.138-0.229,0.201C187.06,139.782,187.143,139.712,187.289,139.581z"
		/>
	<path fill="#E7E7E7" d="M188.113,138.781c-0.263,0.288-0.539,0.552-0.824,0.8C187.473,139.414,187.76,139.144,188.113,138.781z"/>
	<path fill="none" d="M189.672,136.663c-0.471,0.774-0.987,1.492-1.559,2.118c0.563-0.578,1.298-1.4,2.064-2.429
		c2.399-3.222,5.114-8.511,3.876-14.995C194.054,121.357,193.27,130.745,189.672,136.663z"/>
</g>
<circle fill="none" stroke="#000000" stroke-width="4" stroke-miterlimit="10" cx="170.482" cy="77.087" r="31.621"/>
<circle fill-rule="evenodd" clip-rule="evenodd" fill="none" stroke="#FFF200" stroke-width="0.5" stroke-miterlimit="10" cx="170.483" cy="77.085" r="0.48"/>
<circle fill-rule="evenodd" clip-rule="evenodd" fill="none" stroke="#000000" stroke-miterlimit="10" cx="176.877" cy="65.532" r="13.24"/>
<circle fill-rule="evenodd" clip-rule="evenodd" fill="none" stroke="#000000" stroke-miterlimit="10" cx="163.637" cy="88.405" r="13.24"/>
<circle fill-rule="evenodd" clip-rule="evenodd" fill="none" stroke="#000000" stroke-miterlimit="10" cx="181.918" cy="83.707" r="13.24"/>
<circle fill-rule="evenodd" clip-rule="evenodd" fill="none" stroke="#000000" stroke-miterlimit="10" cx="159.045" cy="70.466" r="13.24"/>
<circle fill-rule="evenodd" clip-rule="evenodd" fill="none" stroke="#000000" stroke-miterlimit="10" cx="183.09" cy="73.521" r="13.24"/>
<circle fill-rule="evenodd" clip-rule="evenodd" fill="none" stroke="#000000" stroke-miterlimit="10" cx="157.554" cy="80.333" r="13.24"/>
<circle fill-rule="evenodd" clip-rule="evenodd" fill="none" stroke="#000000" stroke-miterlimit="10" cx="173.804" cy="89.937" r="13.24"/>
<circle fill-rule="evenodd" clip-rule="evenodd" fill="none" stroke="#000000" stroke-miterlimit="10" cx="166.992" cy="64.401" r="13.24"/>
<circle fill="#FFFFFF" stroke="#000000" stroke-miterlimit="10" cx="170.482" cy="77.642" r="1.702"/>
<circle stroke="#000000" stroke-miterlimit="10" cx="158.734" cy="67.419" r="2.157"/>
</svg>
