<?xml version="1.0" encoding="utf-8"?>
<!-- Generator: Adobe Illustrator 16.0.0, SVG Export Plug-In . SVG Version: 6.00 Build 0)  -->
<!DOCTYPE svg PUBLIC "-//W3C//DTD SVG 1.1//EN" "http://www.w3.org/Graphics/SVG/1.1/DTD/svg11.dtd">
<svg version="1.1" id="Layer_1" xmlns="http://www.w3.org/2000/svg" xmlns:xlink="http://www.w3.org/1999/xlink" x="0px" y="0px"
	 width="146.5px" height="146.5px" viewBox="0 0 146.5 146.5" enable-background="new 0 0 146.5 146.5" xml:space="preserve">
<circle fill-rule="evenodd" clip-rule="evenodd" fill="none" stroke="#FFF200" stroke-width="0.5" stroke-miterlimit="10" cx="73.19" cy="73.468" r="0.64"/>
<g opacity="0.6">
	<path fill-rule="evenodd" clip-rule="evenodd" fill="none" stroke="#46464D" stroke-width="1.5" stroke-miterlimit="10" d="
		M99.319,58.092c0,9.731-7.89,17.618-17.62,17.618c-9.674,0-17.62-7.313-17.62-17.618c0-9.732,7.889-17.621,17.62-17.621
		C91.43,40.471,99.319,48.36,99.319,58.092z"/>
	<path fill-rule="evenodd" clip-rule="evenodd" fill="none" stroke="#46464D" stroke-width="1.5" stroke-miterlimit="10" d="
		M81.699,88.532c0,9.73-7.89,17.617-17.62,17.617c-9.732,0-17.621-7.887-17.621-17.617c0-9.731,7.889-17.622,17.621-17.622
		C73.583,70.91,81.699,79.195,81.699,88.532z"/>
	
		<circle fill-rule="evenodd" clip-rule="evenodd" fill="none" stroke="#46464D" stroke-width="1.5" stroke-miterlimit="10" cx="88.408" cy="82.28" r="17.621"/>
	
		<circle fill-rule="evenodd" clip-rule="evenodd" fill="none" stroke="#46464D" stroke-width="1.5" stroke-miterlimit="10" cx="57.968" cy="64.659" r="17.62"/>
	<path fill-rule="evenodd" clip-rule="evenodd" fill="none" stroke="#46464D" stroke-width="1.5" stroke-miterlimit="10" d="
		M102.427,81.184c-6.882,6.882-18.036,6.879-24.916-0.001c-6.802-6.803-6.542-18.378-0.003-24.918c6.882-6.881,18.039-6.881,24.92,0
		C109.309,63.145,109.309,74.303,102.427,81.184z"/>
	<path fill-rule="evenodd" clip-rule="evenodd" fill="none" stroke="#46464D" stroke-width="1.5" stroke-miterlimit="10" d="
		M68.443,90.249c-6.882,6.881-18.037,6.879-24.917-0.002c-6.881-6.881-6.883-18.036-0.002-24.917
		c6.881-6.88,18.04-6.883,24.921-0.001C71.474,68.357,78.606,80.086,68.443,90.249z"/>
	
		<circle fill-rule="evenodd" clip-rule="evenodd" fill="none" stroke="#46464D" stroke-width="1.5" stroke-miterlimit="10" cx="77.609" cy="90.571" r="17.62"/>
	
		<circle fill-rule="evenodd" clip-rule="evenodd" fill="none" stroke="#46464D" stroke-width="1.5" stroke-miterlimit="10" cx="68.544" cy="56.587" r="17.62"/>
</g>
<circle fill="#F0BE58" stroke="#F0BE58" stroke-miterlimit="10" cx="73.188" cy="73.596" r="1.519"/>
<circle fill-rule="evenodd" clip-rule="evenodd" fill="none" stroke="#90A7CF" stroke-width="13" stroke-miterlimit="10" cx="73.188" cy="73.594" r="39.316"/>
</svg>
