<?xml version="1.0" encoding="utf-8"?>
<!-- Generator: Adobe Illustrator 16.0.0, SVG Export Plug-In . SVG Version: 6.00 Build 0)  -->
<!DOCTYPE svg PUBLIC "-//W3C//DTD SVG 1.1//EN" "http://www.w3.org/Graphics/SVG/1.1/DTD/svg11.dtd">
<svg version="1.1" id="Layer_1" xmlns="http://www.w3.org/2000/svg" xmlns:xlink="http://www.w3.org/1999/xlink" x="0px" y="0px"
	 width="194.4px" height="197.399px" viewBox="0 0 194.4 197.399" enable-background="new 0 0 194.4 197.399" xml:space="preserve">
<g>
	<path fill="none" d="M110.143,171.554c-0.195,0.177-0.306,0.268-0.306,0.268C109.941,171.739,110.04,171.642,110.143,171.554
		c0.38-0.33,0.747-0.681,1.097-1.063c0.761-0.834,1.448-1.788,2.074-2.82c-1.212,1.727-2.647,3.354-4.354,4.861
		c1.831-1.24,3.539-3.091,5.027-5.274c-1.021,1.37-1.998,2.464-2.748,3.233C110.769,170.974,110.387,171.333,110.143,171.554z"/>
	<path fill-rule="evenodd" clip-rule="evenodd" fill="#46454D" d="M122.238,145.702c-1.187-1.291-1.867-3.046-2.788-4.585
		c-0.217-0.361-0.464-0.707-0.696-1.058c-0.09,0.034-0.18,0.07-0.269,0.104c0.238,1.173,0.477,2.345,0.623,3.067
		c-2.204,1.422-4.235,2.729-6,3.868c-0.113,2.396-0.007,4.889-0.425,7.291c-0.254,1.458,0.074,2.825,1.834,3.235
		c-0.414,0.352-0.686,0.705-1.044,0.874c-3.144,1.481-5.084,3.811-5.603,7.34c-0.192,1.31-0.847,2.55-1.336,3.953
		c0.158,0.112,0.508,0.359,1.01,0.715c-0.866,0.396-2.427,0.489-1.092,1.606c-2.851,2.287-5.578,4.476-8.093,6.493
		c3.492,1.417,8.82-0.476,15.397-6.004c-0.21,0.826-0.357,1.408-0.505,1.99c0.113,0.13,0.226,0.261,0.339,0.393
		c1.261-1.031,2.679-1.921,3.735-3.129c1.042-1.193,2.236-1.807,3.694-2.202c0.437-0.117,1.021-0.646,1.074-1.047
		c0.193-1.5,0.194-3.026,0.275-4.721c0.194,0.743,0.365,1.398,0.593,2.267C127.185,160.619,126.601,150.451,122.238,145.702z
		 M113.987,167.257c-1.488,2.184-3.196,4.034-5.027,5.274c1.706-1.508,3.142-3.135,4.354-4.861
		c4.788-7.875,5.832-20.367,5.832-20.367C120.793,155.933,117.18,162.971,113.987,167.257z"/>
	<path fill="#E7E7E7" d="M110.143,171.554c-0.103,0.088-0.201,0.185-0.306,0.268C109.837,171.822,109.947,171.731,110.143,171.554z"
		/>
	<path fill="#E7E7E7" d="M111.239,170.491c-0.35,0.383-0.717,0.733-1.097,1.063C110.387,171.333,110.769,170.974,111.239,170.491z"
		/>
	<path fill="none" d="M113.313,167.67c-0.626,1.032-1.313,1.986-2.074,2.82c0.75-0.77,1.728-1.863,2.748-3.233
		c3.192-4.286,6.806-11.324,5.158-19.954C119.146,147.303,118.102,159.795,113.313,167.67z"/>
</g>
<circle fill-rule="evenodd" clip-rule="evenodd" fill="none" stroke="#FFF200" stroke-width="0.5" stroke-miterlimit="10" cx="87.777" cy="88.385" r="0.64"/>
<g>
	<circle fill="#46454D" stroke="#46454D" stroke-miterlimit="10" cx="117.178" cy="136.402" r="1.849"/>
	<path fill="#46454D" stroke="#46454D" stroke-miterlimit="10" d="M117.971,129.753c0,1.663-1.35,3.012-3.015,3.012
		c-1.663,0-3.012-1.349-3.012-3.012c0-1.667,1.349-3.016,3.012-3.016C116.621,126.738,117.971,128.086,117.971,129.753z"/>
	<circle fill="#46454D" stroke="#46454D" stroke-miterlimit="10" cx="72.141" cy="75.521" r="2.87"/>
</g>
<g>
	
		<circle fill-rule="evenodd" clip-rule="evenodd" fill="none" stroke="#46454D" stroke-width="4" stroke-miterlimit="10" cx="87.777" cy="88.385" r="33.714"/>
	<circle fill="none" stroke="#46454D" stroke-width="4" stroke-miterlimit="10" cx="87.776" cy="88.388" r="42.082"/>
	<g>
		
			<circle fill-rule="evenodd" clip-rule="evenodd" fill="none" stroke="#46454D" stroke-miterlimit="10" cx="96.286" cy="73.01" r="17.62"/>
		
			<circle fill-rule="evenodd" clip-rule="evenodd" fill="none" stroke="#46454D" stroke-miterlimit="10" cx="78.666" cy="103.45" r="17.62"/>
		
			<circle fill-rule="evenodd" clip-rule="evenodd" fill="none" stroke="#46454D" stroke-miterlimit="10" cx="102.995" cy="97.197" r="17.621"/>
		
			<circle fill-rule="evenodd" clip-rule="evenodd" fill="none" stroke="#46454D" stroke-miterlimit="10" cx="72.555" cy="79.576" r="17.62"/>
		
			<circle fill-rule="evenodd" clip-rule="evenodd" fill="none" stroke="#46454D" stroke-miterlimit="10" cx="104.554" cy="83.642" r="17.62"/>
		
			<circle fill-rule="evenodd" clip-rule="evenodd" fill="none" stroke="#46454D" stroke-miterlimit="10" cx="70.571" cy="92.707" r="17.621"/>
		
			<circle fill-rule="evenodd" clip-rule="evenodd" fill="none" stroke="#46454D" stroke-miterlimit="10" cx="92.196" cy="105.488" r="17.62"/>
		
			<circle fill-rule="evenodd" clip-rule="evenodd" fill="none" stroke="#46454D" stroke-miterlimit="10" cx="83.131" cy="71.505" r="17.62"/>
	</g>
	
		<circle fill-rule="evenodd" clip-rule="evenodd" fill="none" stroke="#46454D" stroke-width="7" stroke-miterlimit="10" cx="87.775" cy="88.386" r="38.912"/>
</g>
<circle fill="#FFFFFF" stroke="#46454D" stroke-miterlimit="10" cx="87.775" cy="89.126" r="2.265"/>
</svg>
