<?xml version="1.0" encoding="utf-8"?>
<!-- Generator: Adobe Illustrator 16.0.0, SVG Export Plug-In . SVG Version: 6.00 Build 0)  -->
<!DOCTYPE svg PUBLIC "-//W3C//DTD SVG 1.1//EN" "http://www.w3.org/Graphics/SVG/1.1/DTD/svg11.dtd">
<svg version="1.1" id="Layer_1" xmlns="http://www.w3.org/2000/svg" xmlns:xlink="http://www.w3.org/1999/xlink" x="0px" y="0px"
	 width="841.89px" height="1190.55px" viewBox="0 0 841.89 1190.55" enable-background="new 0 0 841.89 1190.55"
	 xml:space="preserve">
<polygon fill="#FFFFFF" points="841.89,1121.775 0,1129.606 0,23.842 841.89,16.011 "/>
<g>
	<defs>
		<rect id="SVGID_1_" x="387.88" y="348.623" width="227.446" height="227.45"/>
	</defs>
	<clipPath id="SVGID_2_">
		<use xlink:href="#SVGID_1_"  overflow="visible"/>
	</clipPath>
	<path clip-path="url(#SVGID_2_)" fill="#585DA6" d="M500.014,462.482c0.078,0.88,0.854,1.531,1.734,1.455
		c0.877-0.078,1.531-0.853,1.453-1.734c-0.076-0.877-0.855-1.526-1.732-1.449C500.588,460.83,499.938,461.605,500.014,462.482"/>
	<path clip-path="url(#SVGID_2_)" fill="none" stroke="#FFF200" stroke-width="1.312" stroke-miterlimit="10" d="M500.014,462.482
		c0.078,0.88,0.854,1.531,1.734,1.455c0.877-0.078,1.531-0.853,1.453-1.734c-0.076-0.877-0.855-1.526-1.732-1.449
		C500.588,460.83,499.938,461.605,500.014,462.482z"/>
	<g clip-path="url(#SVGID_2_)">
		<path fill="none" stroke="#565EA5" stroke-width="3.937" stroke-miterlimit="10" d="M457.463,454.961
			c-18.887-15.847-21.344-43.996-5.496-62.882c15.846-18.886,43.994-21.353,62.881-5.505c18.883,15.847,21.35,44.002,5.504,62.889
			C504.508,468.347,476.348,470.81,457.463,454.961z M487.842,538.723c-18.887-15.846-21.342-43.998-5.496-62.882
			s43.996-21.353,62.881-5.505s21.35,44.005,5.506,62.886C534.885,552.109,506.729,554.572,487.842,538.723z M493.332,505.74
			c-15.848,18.885-44,21.344-62.882,5.496c-18.887-15.845-21.354-43.997-5.508-62.881c15.847-18.883,44.007-21.353,62.892-5.506
			C506.719,458.693,509.178,486.854,493.332,505.74z M577.094,475.36c-15.85,18.887-43.998,21.342-62.879,5.498
			c-18.889-15.847-21.359-43.997-5.51-62.884c15.848-18.884,44.004-21.349,62.889-5.502
			C590.479,428.317,592.941,456.474,577.094,475.36z M465.137,487.94c-24.561,2.15-46.203-16.021-48.353-40.576
			c-2.147-24.561,16.012-46.21,40.571-48.358c24.559-2.148,46.215,16.018,48.361,40.578
			C507.867,464.138,489.695,485.792,465.137,487.94z M545.848,525.689c-24.561,2.148-46.205-16.023-48.354-40.58
			c-2.148-24.559,16.012-46.208,40.572-48.356c24.559-2.149,46.213,16.018,48.361,40.575
			C588.576,501.885,570.406,523.541,545.848,525.689z M526.408,498.481c2.146,24.556-16.023,46.203-40.58,48.351
			c-24.559,2.148-46.209-16.014-48.357-40.57c-2.148-24.56,16.018-46.213,40.578-48.362
			C502.605,455.751,524.258,473.922,526.408,498.481z M564.152,417.771c2.148,24.56-16.021,46.203-40.576,48.353
			c-24.559,2.146-46.209-16.013-48.357-40.572c-2.15-24.561,16.018-46.212,40.576-48.36
			C540.352,375.043,562.004,393.211,564.152,417.771z"/>
	</g>
	<path clip-path="url(#SVGID_2_)" fill="none" stroke="#FCBF52" stroke-width="31.29" stroke-miterlimit="10" d="M599.301,453.798
		c4.723,53.956-35.189,101.528-89.146,106.25c-53.959,4.719-101.53-35.199-106.25-89.155
		c-4.721-53.958,35.198-101.527,89.153-106.247C547.016,359.926,594.58,399.841,599.301,453.798z"/>
	<path clip-path="url(#SVGID_2_)" fill="#585DA6" d="M507.486,463.714c0.275,3.158-2.062,5.945-5.223,6.223
		c-3.156,0.275-5.941-2.064-6.217-5.223c-0.277-3.161,2.059-5.945,5.217-6.22C504.424,458.216,507.211,460.552,507.486,463.714"/>
	<path clip-path="url(#SVGID_2_)" fill="#FEC053" stroke="#FEC053" stroke-width="5.96" stroke-miterlimit="10" d="M507.441,463.718
		c0.275,3.133-2.045,5.898-5.182,6.174c-3.133,0.273-5.895-2.047-6.168-5.182c-0.275-3.136,2.043-5.899,5.176-6.172
		C504.402,458.263,507.168,460.582,507.441,463.718z"/>
</g>
<path fill="none" stroke="#FEC053" stroke-width="100" stroke-miterlimit="10" d="M501.604,255.568"/>
<path fill="none" stroke="#565EA5" stroke-width="130" stroke-miterlimit="10" d="M501.604,255.568
	c114.199,0,206.779,92.579,206.779,206.779c0,114.201-92.58,206.779-206.779,206.779c-114.202,0-206.781-92.578-206.781-206.779"/>
<text transform="matrix(1 0 0 1 111.269 390.3252)" fill="#565EA5" stroke="#565EA5" stroke-width="10" stroke-miterlimit="10" font-family="'Neon80s'" font-size="356.8466" letter-spacing="1">lu </text>
<rect fill="#585DA6" width="841.89" height="124"/>
<rect x="35.945" y="38" fill="none" width="770" height="68"/>
<text transform="matrix(1 0 0 1 35.9453 85.5342)"><tspan x="0" y="0" fill="#FFFFFF" stroke="#FFFFFF" stroke-width="3" stroke-miterlimit="10" font-family="'Neon80s'" font-size="75">liberate</tspan><tspan x="256.421" y="0" fill="#FFFFFF" stroke="#FFFFFF" stroke-width="3" stroke-miterlimit="10" font-family="'Neon80s'" font-size="75" letter-spacing="11"> </tspan><tspan x="289.877" y="0" fill="#FFFFFF" stroke="#FFFFFF" stroke-width="3" stroke-miterlimit="10" font-family="'Neon80s'" font-size="75">+</tspan><tspan x="326.425" y="0" fill="#FFFFFF" stroke="#FFFFFF" stroke-width="3" stroke-miterlimit="10" font-family="'Neon80s'" font-size="75" letter-spacing="11"> </tspan><tspan x="359.88" y="0" fill="#FFFFFF" stroke="#FFFFFF" stroke-width="3" stroke-miterlimit="10" font-family="'Neon80s'" font-size="75">accumelate</tspan></text>
<line fill="none" stroke="#FEC053" stroke-width="10" stroke-miterlimit="10" x1="0" y1="124" x2="841.89" y2="124"/>
<g>
	<defs>
		<polygon id="SVGID_3_" points="-379.159,1087.979 225.381,1208.422 345.825,595.868 -258.715,483.427 		"/>
	</defs>
	<clipPath id="SVGID_4_">
		<use xlink:href="#SVGID_3_"  overflow="visible"/>
	</clipPath>
	<path clip-path="url(#SVGID_4_)" fill="#585DA6" d="M-20.96,845.439c-0.261,2.38,1.455,4.521,3.836,4.781
		c2.375,0.261,4.519-1.452,4.781-3.835c0.26-2.37-1.461-4.509-3.835-4.771C-18.561,841.353-20.7,843.069-20.96,845.439"/>
	<path clip-path="url(#SVGID_4_)" fill="none" stroke="#FFF200" stroke-width="3.355" stroke-miterlimit="10" d="M-20.96,845.439
		c-0.261,2.38,1.455,4.521,3.836,4.781c2.375,0.261,4.519-1.452,4.781-3.835c0.26-2.37-1.461-4.509-3.835-4.771
		C-18.561,841.353-20.7,843.069-20.96,845.439z"/>
	<path clip-path="url(#SVGID_4_)" fill="none" stroke="#565EA5" stroke-width="10.01" stroke-miterlimit="10" d="M-61.628,956.882
		c-52.124,41.803-128.251,33.427-170.051-18.689c-41.804-52.116-33.454-128.25,18.66-170.057
		c52.121-41.799,128.277-33.451,170.083,18.671C-1.132,838.92-9.511,915.075-61.628,956.882z M-127.148,894.64
		c-66.414-7.294-114.317-67.054-107.025-133.458c7.294-66.418,67.025-114.347,133.439-107.053
		c66.415,7.297,114.354,67.049,107.059,133.466C-0.967,854-60.733,901.934-127.148,894.64z M-130.08,802.918
		c-41.808-52.122-33.429-128.242,18.693-170.051c52.114-41.801,128.241-33.456,170.047,18.67
		C100.458,703.652,92.11,779.8,39.992,821.605C-12.125,863.404-88.273,855.041-130.08,802.918z M-93.688,1041.642
		c-41.806-52.118-33.426-128.248,18.69-170.053c52.117-41.805,128.249-33.455,170.052,18.665
		c41.809,52.124,33.446,128.271-18.664,170.066C24.264,1102.136-51.88,1093.772-93.688,1041.642z M177.095,920.484
		C124.97,962.293,48.847,953.913,7.049,901.804c-41.81-52.126-33.468-128.254,18.657-170.061
		c52.123-41.802,128.269-41.443,170.072,10.678C237.58,794.534,229.218,878.679,177.095,920.484z M67.392,1037.715
		C0.971,1030.42-46.934,970.657-39.639,904.251c7.294-66.415,67.025-114.344,133.445-107.049
		c66.415,7.294,114.347,67.046,107.052,133.461C193.565,997.071,133.806,1045.009,67.392,1037.715z M30.126,955.102
		c-7.292,66.407-67.049,114.319-133.458,107.024c-66.417-7.293-114.344-67.031-107.052-133.438
		c7.295-66.419,67.047-114.354,133.464-107.058C-10.511,828.923,37.421,888.685,30.126,955.102z M173.195,752.564
		c-7.295,66.415-67.05,122.32-133.458,115.028c-66.415-7.294-114.342-67.029-107.048-133.44
		c7.294-66.42,67.045-114.349,133.46-107.055C132.556,634.391,180.489,686.147,173.195,752.564z"/>
	<path clip-path="url(#SVGID_4_)" fill="none" stroke="#565EA5" stroke-width="80.01" stroke-miterlimit="10" d="M247.539,874.933
		c-16.024,145.915-147.294,251.229-293.215,235.204C-191.591,1094.111-296.895,962.817-280.87,816.9
		c16.024-145.914,147.313-251.211,293.227-235.187C155.962,597.482,265.88,707.942,247.539,874.933z"/>
	<path clip-path="url(#SVGID_4_)" fill="#585DA6" d="M-1.753,852.669c-0.938,8.542-8.63,14.713-17.174,13.773
		c-8.537-0.938-14.699-8.629-13.76-17.172c0.938-8.547,8.621-14.709,17.159-13.77C-6.985,836.438-0.814,844.122-1.753,852.669"/>
	<path clip-path="url(#SVGID_4_)" fill="#565EA5" stroke="#565EA5" stroke-width="10" stroke-miterlimit="10" d="M-1.873,852.656
		c-0.931,8.475-8.563,14.598-17.042,13.666c-8.471-0.93-14.584-8.564-13.652-17.036c0.931-8.483,8.554-14.6,17.025-13.669
		C-7.063,836.551-0.942,844.175-1.873,852.656"/>
</g>
<text transform="matrix(1 0 0 1 728.4102 748.208)" fill="#565EA5" stroke="#565EA5" stroke-width="5" stroke-miterlimit="10" font-family="'Neon80s'" font-size="104.0435">lu </text>
<polygon fill="#565EA5" points="0,1011.755 0,1190.606 841.891,1190.606 841.89,778.637 "/>
<g>
	<defs>
		<rect id="SVGID_5_" x="324.826" y="972.152" width="464.337" height="152.043"/>
	</defs>
	<clipPath id="SVGID_6_">
		<use xlink:href="#SVGID_5_"  overflow="visible"/>
	</clipPath>
	<path clip-path="url(#SVGID_6_)" fill="#FFFFFF" d="M752.913,1087.943c-6.372,6.373-14.062,9.559-23.069,9.559
		c-9.011,0-16.684-3.166-23.019-9.502c-6.336-6.334-9.503-14.008-9.503-23.018c0-9.009,3.167-16.699,9.503-23.071
		c6.335-6.372,14.008-9.559,23.019-9.559c9.008,0,16.697,3.187,23.069,9.559c5.419,5.421,8.532,11.793,9.338,19.115v4.176
		c0,0.658,0.036,1.318,0.111,1.978C761.922,1075.238,758.773,1082.16,752.913,1087.943 M784.663,988.298
		c0-3.076-1.097-5.713-3.295-7.91s-4.834-3.295-7.911-3.295c-3.076,0-5.712,1.098-7.91,3.295c-2.195,2.197-3.296,4.834-3.296,7.91
		v32.3c-9.376-7.031-20.177-10.546-32.407-10.546c-15.162,0-28.09,5.346-38.783,16.04c-10.694,10.693-16.039,23.62-16.039,38.781
		c0,15.162,5.345,28.09,16.039,38.781c10.693,10.695,23.621,16.039,38.783,16.039c15.16,0,28.086-5.344,38.779-16.039
		c10.547-10.547,15.895-23.291,16.04-38.232V988.298z M648.829,995.769c2.198-2.197,3.296-4.834,3.296-7.91s-1.098-5.713-3.296-7.91
		c-2.196-2.197-4.834-3.296-7.909-3.296c-3.076,0-5.714,1.099-7.91,3.296c-2.197,2.197-3.297,4.834-3.297,7.91s1.1,5.713,3.297,7.91
		c2.196,2.198,4.834,3.296,7.91,3.296C643.995,999.064,646.633,997.967,648.829,995.769 M648.829,1116.398
		c2.198-2.197,3.296-4.834,3.296-7.91v-87.891c0-3.076-1.098-5.712-3.296-7.91c-2.196-2.197-4.834-3.296-7.909-3.296
		c-3.076,0-5.714,1.099-7.91,3.296c-2.197,2.198-3.297,4.834-3.297,7.91v87.891c0,3.076,1.1,5.713,3.297,7.91
		c2.196,2.197,4.834,3.297,7.91,3.297C643.995,1119.695,646.633,1118.596,648.829,1116.398 M601.436,1025.98
		c-10.621-10.618-23.512-15.929-38.672-15.929c-15.162,0-28.09,5.346-38.782,16.04c-10.695,10.693-16.04,23.619-16.04,38.781
		s5.345,28.09,16.04,38.781c10.692,10.695,23.62,16.041,38.782,16.041c15.16,0,28.051-5.31,38.672-15.932
		c0.072-0.07,0.145-0.145,0.22-0.219c2.196-2.197,3.295-4.834,3.295-7.909c0-3.077-1.099-5.696-3.295-7.856
		c-2.199-2.158-4.835-3.24-7.911-3.24s-5.676,1.062-7.8,3.186c-0.075,0.074-0.147,0.148-0.22,0.221
		c-6.373,6.299-14.027,9.447-22.961,9.447c-9.01,0-16.699-3.186-23.071-9.559c-6.372-6.371-9.559-14.062-9.559-23.071
		s3.187-16.681,9.559-23.017c6.372-6.334,14.062-9.503,23.071-9.503c9.009,0,16.662,3.149,22.961,9.447h0.108
		c2.124,2.198,4.726,3.297,7.802,3.297c3.002,0,5.584-1.079,7.746-3.241c2.158-2.159,3.239-4.741,3.239-7.745
		c0-3.075-1.062-5.675-3.185-7.8c-0.074,0-0.111-0.036-0.111-0.109L601.436,1025.98z M430.553,1119.695
		c15.454-0.879,28.163-6.299,38.124-16.26c10.545-10.547,15.893-23.291,16.039-38.233v-42.407c0-4.247-1.099-7.471-3.295-9.668
		c-2.199-2.197-4.834-3.296-7.91-3.296s-5.713,1.099-7.91,3.296s-3.297,5.348-3.297,9.448v42.407c0,0.659,0.037,1.319,0.11,1.978
		c-0.438,8.058-3.59,14.979-9.448,20.765c-6.373,6.373-14.062,9.559-23.07,9.559h-0.44c-9.008,0-16.699-3.186-23.071-9.559
		c-5.86-5.785-9.009-12.707-9.448-20.765c0.071-0.658,0.11-1.318,0.11-1.978v-42.407c0-4.101-1.099-7.251-3.296-9.448
		c-2.197-2.197-4.834-3.296-7.91-3.296c-3.078,0-5.713,1.099-7.912,3.296c-2.196,2.197-3.294,5.421-3.294,9.668v42.407
		c0.145,14.942,5.493,27.687,16.04,38.233c9.958,9.961,22.667,15.381,38.123,16.26H430.553z M340.532,977.531
		c-3.076,0-5.713,1.099-7.91,3.296c-2.197,2.197-3.296,4.834-3.296,7.91v119.751c0,3.076,1.099,5.713,3.296,7.91
		c2.197,2.197,4.834,3.297,7.91,3.297s5.713-1.1,7.91-3.297c2.197-2.197,3.296-4.834,3.296-7.91V988.737
		c0-3.076-1.099-5.713-3.296-7.91C346.245,978.63,343.608,977.531,340.532,977.531"/>
	<path clip-path="url(#SVGID_6_)" fill="none" stroke="#FFFFFF" stroke-width="9" d="M752.913,1087.943
		c-6.372,6.373-14.062,9.559-23.069,9.559c-9.011,0-16.684-3.166-23.019-9.502c-6.336-6.334-9.503-14.008-9.503-23.018
		c0-9.009,3.167-16.699,9.503-23.071c6.335-6.372,14.008-9.559,23.019-9.559c9.008,0,16.697,3.187,23.069,9.559
		c5.419,5.421,8.532,11.793,9.338,19.115v4.176c0,0.658,0.036,1.318,0.111,1.978C761.922,1075.238,758.773,1082.16,752.913,1087.943
		z M784.663,988.298c0-3.076-1.097-5.713-3.295-7.91s-4.834-3.295-7.911-3.295c-3.076,0-5.712,1.098-7.91,3.295
		c-2.195,2.197-3.296,4.834-3.296,7.91v32.3c-9.376-7.031-20.177-10.546-32.407-10.546c-15.162,0-28.09,5.346-38.783,16.04
		c-10.694,10.693-16.039,23.62-16.039,38.781c0,15.162,5.345,28.09,16.039,38.781c10.693,10.695,23.621,16.039,38.783,16.039
		c15.16,0,28.086-5.344,38.779-16.039c10.547-10.547,15.895-23.291,16.04-38.232V988.298z M648.829,995.769
		c2.198-2.197,3.296-4.834,3.296-7.91s-1.098-5.713-3.296-7.91c-2.196-2.197-4.834-3.296-7.909-3.296
		c-3.076,0-5.714,1.099-7.91,3.296c-2.197,2.197-3.297,4.834-3.297,7.91s1.1,5.713,3.297,7.91c2.196,2.198,4.834,3.296,7.91,3.296
		C643.995,999.064,646.633,997.967,648.829,995.769z M648.829,1116.398c2.198-2.197,3.296-4.834,3.296-7.91v-87.891
		c0-3.076-1.098-5.712-3.296-7.91c-2.196-2.197-4.834-3.296-7.909-3.296c-3.076,0-5.714,1.099-7.91,3.296
		c-2.197,2.198-3.297,4.834-3.297,7.91v87.891c0,3.076,1.1,5.713,3.297,7.91c2.196,2.197,4.834,3.297,7.91,3.297
		C643.995,1119.695,646.633,1118.596,648.829,1116.398z M601.436,1025.98c-10.621-10.618-23.512-15.929-38.672-15.929
		c-15.162,0-28.09,5.346-38.782,16.04c-10.695,10.693-16.04,23.619-16.04,38.781s5.345,28.09,16.04,38.781
		c10.692,10.695,23.62,16.041,38.782,16.041c15.16,0,28.051-5.31,38.672-15.932c0.072-0.07,0.145-0.145,0.22-0.219
		c2.196-2.197,3.295-4.834,3.295-7.909c0-3.077-1.099-5.696-3.295-7.856c-2.199-2.158-4.835-3.24-7.911-3.24s-5.676,1.062-7.8,3.186
		c-0.075,0.074-0.147,0.148-0.22,0.221c-6.373,6.299-14.027,9.447-22.961,9.447c-9.01,0-16.699-3.186-23.071-9.559
		c-6.372-6.371-9.559-14.062-9.559-23.071s3.187-16.681,9.559-23.017c6.372-6.334,14.062-9.503,23.071-9.503
		c9.009,0,16.662,3.149,22.961,9.447h0.108c2.124,2.198,4.726,3.297,7.802,3.297c3.002,0,5.584-1.079,7.746-3.241
		c2.158-2.159,3.239-4.741,3.239-7.745c0-3.075-1.062-5.675-3.185-7.8c-0.074,0-0.111-0.036-0.111-0.109L601.436,1025.98z
		 M430.553,1119.695c15.454-0.879,28.163-6.299,38.124-16.26c10.545-10.547,15.893-23.291,16.039-38.233v-42.407
		c0-4.247-1.099-7.471-3.295-9.668c-2.199-2.197-4.834-3.296-7.91-3.296s-5.713,1.099-7.91,3.296s-3.297,5.348-3.297,9.448v42.407
		c0,0.659,0.037,1.319,0.11,1.978c-0.438,8.058-3.59,14.979-9.448,20.765c-6.373,6.373-14.062,9.559-23.07,9.559h-0.44
		c-9.008,0-16.699-3.186-23.071-9.559c-5.86-5.785-9.009-12.707-9.448-20.765c0.071-0.658,0.11-1.318,0.11-1.978v-42.407
		c0-4.101-1.099-7.251-3.296-9.448c-2.197-2.197-4.834-3.296-7.91-3.296c-3.078,0-5.713,1.099-7.912,3.296
		c-2.196,2.197-3.294,5.421-3.294,9.668v42.407c0.145,14.942,5.493,27.687,16.04,38.233c9.958,9.961,22.667,15.381,38.123,16.26
		H430.553z M340.532,977.531c-3.076,0-5.713,1.099-7.91,3.296c-2.197,2.197-3.296,4.834-3.296,7.91v119.751
		c0,3.076,1.099,5.713,3.296,7.91c2.197,2.197,4.834,3.297,7.91,3.297s5.713-1.1,7.91-3.297c2.197-2.197,3.296-4.834,3.296-7.91
		V988.737c0-3.076-1.099-5.713-3.296-7.91C346.245,978.63,343.608,977.531,340.532,977.531z"/>
	<g clip-path="url(#SVGID_6_)">
		<text transform="matrix(1 0 0 1 663.4902 1119.6943)" fill="#FFFFFF" font-family="'Neon80s'" font-size="225">d</text>
	</g>
	<path clip-path="url(#SVGID_6_)" fill="#FEC053" d="M601.398,1019.099c0,0,3.156,2.5,6.906,8.155"/>
	<path clip-path="url(#SVGID_6_)" fill="#565EA5" d="M601.398,1019.099c0,0,3.156,2.5,6.906,8.155"/>
</g>
<rect x="620.105" y="1004.197" fill="#565EA5" width="46.781" height="21.375"/>
<g>
	<defs>
		<rect id="SVGID_7_" x="324.826" y="972.152" width="464.337" height="152.043"/>
	</defs>
	<clipPath id="SVGID_8_">
		<use xlink:href="#SVGID_7_"  overflow="visible"/>
	</clipPath>
	<path clip-path="url(#SVGID_8_)" fill="#FFFFFF" d="M625.227,1025.756c0,0-0.416-9.244,9-13.827c0,0,6.142-3.344,13.533,0.035
		c0,0,8.873,3.757,8.873,13.792"/>
</g>
<line fill="none" stroke="#FCBF52" stroke-width="10.066" stroke-miterlimit="10" x1="0" y1="1011.714" x2="841.89" y2="778.543"/>
<circle fill="#FEC053" cx="769.005" cy="191.1" r="29.1"/>
<g>
	<g id="HQpN7E_1_">
		<g>
			<path fill="#565EA5" d="M411.333,264.652c0,0.548,0,1.097,0,1.645c-2.263,6.681-7.512,9.136-13.548,10.089
				c-5.537,0.874-11.142,1.792-16.717,1.8c-91.027,0.11-182.054,0.156-273.081-0.066c-7.468-0.019-15.019-1.662-22.367-3.34
				c-4.988-1.139-7.527-5.12-7.527-9.305c0.001-4.183,2.693-7.595,7.502-9.439c0.976-0.375,1.982-0.771,3.004-0.897
				c6.981-0.857,13.97-2.336,20.958-2.35c84.75-0.163,169.499-0.13,254.247-0.07c9.138,0.006,18.314,0.051,27.401,0.912
				C399.135,254.381,407.711,254.829,411.333,264.652z"/>
		</g>
	</g>
	<g id="HQpN7E_2_">
		<g>
			<path fill="#565EA5" d="M411.334,310.652c0,0.548,0,1.097,0,1.645c-2.264,6.681-7.512,9.136-13.549,10.089
				c-5.537,0.874-11.142,1.792-16.717,1.8c-91.027,0.11-182.054,0.156-273.081-0.066c-7.468-0.019-15.019-1.662-22.367-3.34
				c-4.988-1.139-7.527-5.12-7.527-9.305c0.001-4.183,2.693-7.595,7.502-9.439c0.976-0.375,1.982-0.771,3.004-0.897
				c6.981-0.857,13.97-2.336,20.958-2.35c84.75-0.163,169.499-0.13,254.247-0.07c9.138,0.006,18.314,0.051,27.401,0.912
				C399.135,300.381,407.711,300.829,411.334,310.652z"/>
		</g>
	</g>
</g>
<g id="HQpN7E_4_">
	<g>
		<path fill="#565EA5" d="M817.631,710.029c0,0.169,0,0.338,0,0.507c-0.698,2.062-2.319,2.82-4.182,3.115
			c-1.71,0.27-3.44,0.553-5.161,0.556c-28.101,0.032-56.201,0.048-84.302-0.021c-2.305-0.005-4.636-0.513-6.904-1.03
			c-1.539-0.352-2.322-1.58-2.322-2.872s0.83-2.346,2.315-2.914c0.301-0.116,0.611-0.238,0.926-0.277
			c2.156-0.265,4.313-0.722,6.471-0.726c26.162-0.052,52.325-0.041,78.487-0.021c2.82,0.002,5.652,0.017,8.459,0.281
			C813.865,706.857,816.513,706.995,817.631,710.029z"/>
	</g>
</g>
<g id="HQpN7E_3_">
	<g>
		<path fill="#565EA5" d="M817.631,724.229c0,0.169,0,0.34,0,0.509c-0.698,2.062-2.319,2.82-4.182,3.113
			c-1.71,0.271-3.44,0.555-5.161,0.557c-28.101,0.033-56.201,0.048-84.302-0.021c-2.305-0.006-4.636-0.512-6.904-1.031
			c-1.539-0.352-2.322-1.58-2.322-2.872s0.83-2.344,2.315-2.914c0.301-0.115,0.611-0.238,0.926-0.275
			c2.156-0.265,4.313-0.722,6.471-0.727c26.162-0.05,52.325-0.039,78.487-0.021c2.82,0.002,5.652,0.016,8.459,0.28
			C813.865,721.059,816.513,721.197,817.631,724.229z"/>
	</g>
</g>
</svg>
