<?xml version="1.0" encoding="utf-8"?>
<!-- Generator: Adobe Illustrator 16.0.0, SVG Export Plug-In . SVG Version: 6.00 Build 0)  -->
<!DOCTYPE svg PUBLIC "-//W3C//DTD SVG 1.1//EN" "http://www.w3.org/Graphics/SVG/1.1/DTD/svg11.dtd">
<svg version="1.1" id="Layer_1" xmlns="http://www.w3.org/2000/svg" xmlns:xlink="http://www.w3.org/1999/xlink" x="0px" y="0px"
	 width="841.89px" height="1190.55px" viewBox="0 0 841.89 1190.55" enable-background="new 0 0 841.89 1190.55"
	 xml:space="preserve">
<rect x="0" fill="#585DA6" width="841.89" height="1129.606"/>
<g>
	<defs>
		<rect id="SVGID_1_" x="393.879" y="379.623" width="227.446" height="227.45"/>
	</defs>
	<clipPath id="SVGID_2_">
		<use xlink:href="#SVGID_1_"  overflow="visible"/>
	</clipPath>
	<path clip-path="url(#SVGID_2_)" fill="#585DA6" d="M506.013,493.482c0.078,0.88,0.854,1.531,1.734,1.455
		c0.877-0.078,1.531-0.853,1.453-1.734c-0.076-0.877-0.855-1.526-1.732-1.449C506.587,491.83,505.937,492.605,506.013,493.482"/>
	<path clip-path="url(#SVGID_2_)" fill="none" stroke="#FFF200" stroke-width="1.312" stroke-miterlimit="10" d="M506.013,493.482
		c0.078,0.88,0.854,1.531,1.734,1.455c0.877-0.078,1.531-0.853,1.453-1.734c-0.076-0.877-0.855-1.526-1.732-1.449
		C506.587,491.83,505.937,492.605,506.013,493.482z"/>
	<path clip-path="url(#SVGID_2_)" fill="none" stroke="#FFFFFF" stroke-width="3.937" stroke-miterlimit="10" d="M463.462,485.961
		c-18.887-15.847-21.344-43.996-5.496-62.882c15.846-18.886,43.994-21.353,62.881-5.505c18.883,15.847,21.35,44.002,5.504,62.889
		C510.507,499.347,482.347,501.81,463.462,485.961z M493.841,569.723c-18.887-15.846-21.342-43.998-5.496-62.882
		s43.996-21.353,62.881-5.505s21.35,44.005,5.506,62.886C540.884,583.109,512.728,585.572,493.841,569.723z M499.331,536.74
		c-15.848,18.885-44,21.344-62.882,5.496c-18.887-15.845-21.354-43.997-5.508-62.881c15.847-18.883,44.007-21.353,62.892-5.506
		C512.718,489.693,515.177,517.854,499.331,536.74z M583.093,506.36c-15.85,18.887-43.998,21.342-62.879,5.498
		c-18.889-15.847-21.359-43.997-5.51-62.884c15.848-18.884,44.004-21.349,62.889-5.502
		C596.478,459.317,598.94,487.474,583.093,506.36z M471.136,518.94c-24.561,2.15-46.203-16.021-48.353-40.576
		c-2.147-24.561,16.012-46.21,40.571-48.358c24.559-2.148,46.215,16.018,48.361,40.578
		C513.866,495.138,495.694,516.792,471.136,518.94z M551.847,556.689c-24.561,2.148-46.205-16.023-48.354-40.58
		c-2.148-24.559,16.012-46.208,40.572-48.356c24.559-2.149,46.213,16.018,48.361,40.575
		C594.575,532.885,576.405,554.541,551.847,556.689z M532.407,529.481c2.146,24.556-16.023,46.203-40.58,48.351
		c-24.559,2.148-46.209-16.014-48.357-40.57c-2.148-24.56,16.018-46.213,40.578-48.362
		C508.604,486.751,530.257,504.922,532.407,529.481z M570.151,448.771c2.148,24.56-16.021,46.203-40.576,48.353
		c-24.559,2.146-46.209-16.013-48.357-40.572c-2.15-24.561,16.018-46.212,40.576-48.36
		C546.351,406.043,568.003,424.211,570.151,448.771z"/>
	<path clip-path="url(#SVGID_2_)" fill="none" stroke="#FCBF52" stroke-width="31.29" stroke-miterlimit="10" d="M605.3,484.798
		c4.723,53.956-35.189,101.528-89.146,106.25c-53.959,4.719-101.53-35.199-106.25-89.155
		c-4.721-53.958,35.198-101.527,89.153-106.247C553.015,390.926,600.579,430.841,605.3,484.798z"/>
	<path clip-path="url(#SVGID_2_)" fill="#585DA6" d="M513.485,494.714c0.275,3.158-2.062,5.945-5.223,6.223
		c-3.156,0.275-5.941-2.064-6.217-5.223c-0.277-3.161,2.059-5.945,5.217-6.22C510.423,489.216,513.21,491.552,513.485,494.714"/>
	<path clip-path="url(#SVGID_2_)" fill="#FEC053" stroke="#FEC053" stroke-width="5.96" stroke-miterlimit="10" d="M513.44,494.718
		c0.275,3.133-2.045,5.898-5.182,6.174c-3.133,0.273-5.895-2.047-6.168-5.182c-0.275-3.136,2.043-5.899,5.176-6.172
		C510.401,489.263,513.167,491.582,513.44,494.718z"/>
</g>
<path fill="none" stroke="#FEC053" stroke-width="100" stroke-miterlimit="10" d="M507.603,286.568"/>
<path fill="none" stroke="#FFFFFF" stroke-width="130" stroke-miterlimit="10" d="M507.603,286.568
	c114.199,0,206.779,92.579,206.779,206.779c0,114.201-92.58,206.779-206.779,206.779c-114.202,0-206.781-92.578-206.781-206.779"/>
<text transform="matrix(1 0 0 1 89.3042 446.3911)" fill="#FFFFFF" stroke="#FFFFFF" stroke-width="10" stroke-miterlimit="10" font-family="'Neon80s'" font-size="444.4473" letter-spacing="2">lu </text>
<polygon fill="#FEC053" points="0,1011.714 0,1190.606 841.891,1190.606 841.89,778.543 "/>
<g id="hYBqAm_1_">
	<g>
		<path fill="#FFFFFF" d="M475,285.57c0,0.667,0,1.333,0,2c-2.885,8.121-9.572,11.105-17.262,12.263
			c-7.055,1.062-14.195,2.18-21.301,2.188c-115.974,0.134-231.949,0.19-347.923-0.08c-9.515-0.022-19.135-2.02-28.498-4.06
			c-6.354-1.384-9.59-6.224-9.59-11.311c0-5.085,3.432-9.232,9.558-11.474c1.245-0.456,2.526-0.938,3.828-1.091
			c8.895-1.042,17.799-2.84,26.702-2.856c107.977-0.198,215.954-0.159,323.93-0.085c11.642,0.008,23.333,0.062,34.912,1.108
			C459.457,273.085,470.383,273.629,475,285.57z"/>
	</g>
</g>
<g id="hYBqAm_2_">
	<g>
		<path fill="#FFFFFF" d="M475,347.237c0,0.667,0,1.333,0,2c-2.885,8.121-9.572,11.105-17.262,12.263
			c-7.055,1.062-14.195,2.18-21.301,2.188c-115.973,0.134-231.949,0.19-347.923-0.08c-9.515-0.022-19.135-2.02-28.498-4.06
			c-6.354-1.384-9.59-6.224-9.59-11.311c0-5.085,3.432-9.232,9.558-11.474c1.245-0.456,2.526-0.938,3.828-1.091
			c8.895-1.042,17.799-2.84,26.702-2.856c107.977-0.198,215.954-0.159,323.93-0.085c11.642,0.008,23.333,0.062,34.911,1.108
			C459.457,334.752,470.383,335.296,475,347.237z"/>
	</g>
</g>
<g>
	<defs>
		<rect id="SVGID_3_" x="324.826" y="972.152" width="464.337" height="152.043"/>
	</defs>
	<clipPath id="SVGID_4_">
		<use xlink:href="#SVGID_3_"  overflow="visible"/>
	</clipPath>
	<path clip-path="url(#SVGID_4_)" fill="#FFFFFF" d="M752.913,1087.943c-6.372,6.373-14.062,9.559-23.069,9.559
		c-9.011,0-16.684-3.166-23.019-9.502c-6.336-6.334-9.503-14.008-9.503-23.018c0-9.009,3.167-16.699,9.503-23.071
		c6.335-6.372,14.008-9.559,23.019-9.559c9.008,0,16.697,3.187,23.069,9.559c5.419,5.421,8.532,11.793,9.338,19.115v4.176
		c0,0.658,0.036,1.318,0.111,1.978C761.922,1075.238,758.773,1082.16,752.913,1087.943 M784.663,988.298
		c0-3.076-1.097-5.713-3.295-7.91s-4.834-3.295-7.911-3.295c-3.076,0-5.712,1.098-7.91,3.295c-2.195,2.197-3.296,4.834-3.296,7.91
		v32.3c-9.376-7.031-20.177-10.546-32.407-10.546c-15.162,0-28.09,5.346-38.783,16.04c-10.694,10.693-16.039,23.62-16.039,38.781
		c0,15.162,5.345,28.09,16.039,38.781c10.693,10.695,23.621,16.039,38.783,16.039c15.16,0,28.086-5.344,38.779-16.039
		c10.547-10.547,15.895-23.291,16.04-38.232V988.298z M648.829,995.769c2.198-2.197,3.296-4.834,3.296-7.91s-1.098-5.713-3.296-7.91
		c-2.196-2.197-4.834-3.296-7.909-3.296c-3.076,0-5.714,1.099-7.91,3.296c-2.197,2.197-3.297,4.834-3.297,7.91s1.1,5.713,3.297,7.91
		c2.196,2.198,4.834,3.296,7.91,3.296C643.995,999.064,646.633,997.967,648.829,995.769 M648.829,1116.398
		c2.198-2.197,3.296-4.834,3.296-7.91v-87.891c0-3.076-1.098-5.712-3.296-7.91c-2.196-2.197-4.834-3.296-7.909-3.296
		c-3.076,0-5.714,1.099-7.91,3.296c-2.197,2.198-3.297,4.834-3.297,7.91v87.891c0,3.076,1.1,5.713,3.297,7.91
		c2.196,2.197,4.834,3.297,7.91,3.297C643.995,1119.695,646.633,1118.596,648.829,1116.398 M601.436,1025.98
		c-10.621-10.618-23.512-15.929-38.672-15.929c-15.162,0-28.09,5.346-38.782,16.04c-10.695,10.693-16.04,23.619-16.04,38.781
		s5.345,28.09,16.04,38.781c10.692,10.695,23.62,16.041,38.782,16.041c15.16,0,28.051-5.31,38.672-15.932
		c0.072-0.07,0.145-0.145,0.22-0.219c2.196-2.197,3.295-4.834,3.295-7.909c0-3.077-1.099-5.696-3.295-7.856
		c-2.199-2.158-4.835-3.24-7.911-3.24s-5.676,1.062-7.8,3.186c-0.075,0.074-0.147,0.148-0.22,0.221
		c-6.373,6.299-14.027,9.447-22.961,9.447c-9.01,0-16.699-3.186-23.071-9.559c-6.372-6.371-9.559-14.062-9.559-23.071
		s3.187-16.681,9.559-23.017c6.372-6.334,14.062-9.503,23.071-9.503c9.009,0,16.662,3.149,22.961,9.447h0.108
		c2.124,2.198,4.726,3.297,7.802,3.297c3.002,0,5.584-1.079,7.746-3.241c2.158-2.159,3.239-4.741,3.239-7.745
		c0-3.075-1.062-5.675-3.185-7.8c-0.074,0-0.111-0.036-0.111-0.109L601.436,1025.98z M430.553,1119.695
		c15.454-0.879,28.163-6.299,38.124-16.26c10.545-10.547,15.893-23.291,16.039-38.233v-42.407c0-4.247-1.099-7.471-3.295-9.668
		c-2.199-2.197-4.834-3.296-7.91-3.296s-5.713,1.099-7.91,3.296s-3.297,5.348-3.297,9.448v42.407c0,0.659,0.037,1.319,0.11,1.978
		c-0.438,8.058-3.59,14.979-9.448,20.765c-6.373,6.373-14.062,9.559-23.07,9.559h-0.44c-9.008,0-16.699-3.186-23.071-9.559
		c-5.86-5.785-9.009-12.707-9.448-20.765c0.071-0.658,0.11-1.318,0.11-1.978v-42.407c0-4.101-1.099-7.251-3.296-9.448
		c-2.197-2.197-4.834-3.296-7.91-3.296c-3.078,0-5.713,1.099-7.912,3.296c-2.196,2.197-3.294,5.421-3.294,9.668v42.407
		c0.145,14.942,5.493,27.687,16.04,38.233c9.958,9.961,22.667,15.381,38.123,16.26H430.553z M340.532,977.531
		c-3.076,0-5.713,1.099-7.91,3.296c-2.197,2.197-3.296,4.834-3.296,7.91v119.751c0,3.076,1.099,5.713,3.296,7.91
		c2.197,2.197,4.834,3.297,7.91,3.297s5.713-1.1,7.91-3.297c2.197-2.197,3.296-4.834,3.296-7.91V988.737
		c0-3.076-1.099-5.713-3.296-7.91C346.245,978.63,343.608,977.531,340.532,977.531"/>
	<path clip-path="url(#SVGID_4_)" fill="none" stroke="#FFFFFF" stroke-width="9" d="M752.913,1087.943
		c-6.372,6.373-14.062,9.559-23.069,9.559c-9.011,0-16.684-3.166-23.019-9.502c-6.336-6.334-9.503-14.008-9.503-23.018
		c0-9.009,3.167-16.699,9.503-23.071c6.335-6.372,14.008-9.559,23.019-9.559c9.008,0,16.697,3.187,23.069,9.559
		c5.419,5.421,8.532,11.793,9.338,19.115v4.176c0,0.658,0.036,1.318,0.111,1.978C761.922,1075.238,758.773,1082.16,752.913,1087.943
		z M784.663,988.298c0-3.076-1.097-5.713-3.295-7.91s-4.834-3.295-7.911-3.295c-3.076,0-5.712,1.098-7.91,3.295
		c-2.195,2.197-3.296,4.834-3.296,7.91v32.3c-9.376-7.031-20.177-10.546-32.407-10.546c-15.162,0-28.09,5.346-38.783,16.04
		c-10.694,10.693-16.039,23.62-16.039,38.781c0,15.162,5.345,28.09,16.039,38.781c10.693,10.695,23.621,16.039,38.783,16.039
		c15.16,0,28.086-5.344,38.779-16.039c10.547-10.547,15.895-23.291,16.04-38.232V988.298z M648.829,995.769
		c2.198-2.197,3.296-4.834,3.296-7.91s-1.098-5.713-3.296-7.91c-2.196-2.197-4.834-3.296-7.909-3.296
		c-3.076,0-5.714,1.099-7.91,3.296c-2.197,2.197-3.297,4.834-3.297,7.91s1.1,5.713,3.297,7.91c2.196,2.198,4.834,3.296,7.91,3.296
		C643.995,999.064,646.633,997.967,648.829,995.769z M648.829,1116.398c2.198-2.197,3.296-4.834,3.296-7.91v-87.891
		c0-3.076-1.098-5.712-3.296-7.91c-2.196-2.197-4.834-3.296-7.909-3.296c-3.076,0-5.714,1.099-7.91,3.296
		c-2.197,2.198-3.297,4.834-3.297,7.91v87.891c0,3.076,1.1,5.713,3.297,7.91c2.196,2.197,4.834,3.297,7.91,3.297
		C643.995,1119.695,646.633,1118.596,648.829,1116.398z M601.436,1025.98c-10.621-10.618-23.512-15.929-38.672-15.929
		c-15.162,0-28.09,5.346-38.782,16.04c-10.695,10.693-16.04,23.619-16.04,38.781s5.345,28.09,16.04,38.781
		c10.692,10.695,23.62,16.041,38.782,16.041c15.16,0,28.051-5.31,38.672-15.932c0.072-0.07,0.145-0.145,0.22-0.219
		c2.196-2.197,3.295-4.834,3.295-7.909c0-3.077-1.099-5.696-3.295-7.856c-2.199-2.158-4.835-3.24-7.911-3.24s-5.676,1.062-7.8,3.186
		c-0.075,0.074-0.147,0.148-0.22,0.221c-6.373,6.299-14.027,9.447-22.961,9.447c-9.01,0-16.699-3.186-23.071-9.559
		c-6.372-6.371-9.559-14.062-9.559-23.071s3.187-16.681,9.559-23.017c6.372-6.334,14.062-9.503,23.071-9.503
		c9.009,0,16.662,3.149,22.961,9.447h0.108c2.124,2.198,4.726,3.297,7.802,3.297c3.002,0,5.584-1.079,7.746-3.241
		c2.158-2.159,3.239-4.741,3.239-7.745c0-3.075-1.062-5.675-3.185-7.8c-0.074,0-0.111-0.036-0.111-0.109L601.436,1025.98z
		 M430.553,1119.695c15.454-0.879,28.163-6.299,38.124-16.26c10.545-10.547,15.893-23.291,16.039-38.233v-42.407
		c0-4.247-1.099-7.471-3.295-9.668c-2.199-2.197-4.834-3.296-7.91-3.296s-5.713,1.099-7.91,3.296s-3.297,5.348-3.297,9.448v42.407
		c0,0.659,0.037,1.319,0.11,1.978c-0.438,8.058-3.59,14.979-9.448,20.765c-6.373,6.373-14.062,9.559-23.07,9.559h-0.44
		c-9.008,0-16.699-3.186-23.071-9.559c-5.86-5.785-9.009-12.707-9.448-20.765c0.071-0.658,0.11-1.318,0.11-1.978v-42.407
		c0-4.101-1.099-7.251-3.296-9.448c-2.197-2.197-4.834-3.296-7.91-3.296c-3.078,0-5.713,1.099-7.912,3.296
		c-2.196,2.197-3.294,5.421-3.294,9.668v42.407c0.145,14.942,5.493,27.687,16.04,38.233c9.958,9.961,22.667,15.381,38.123,16.26
		H430.553z M340.532,977.531c-3.076,0-5.713,1.099-7.91,3.296c-2.197,2.197-3.296,4.834-3.296,7.91v119.751
		c0,3.076,1.099,5.713,3.296,7.91c2.197,2.197,4.834,3.297,7.91,3.297s5.713-1.1,7.91-3.297c2.197-2.197,3.296-4.834,3.296-7.91
		V988.737c0-3.076-1.099-5.713-3.296-7.91C346.245,978.63,343.608,977.531,340.532,977.531z"/>
	<g clip-path="url(#SVGID_4_)">
		<text transform="matrix(1 0 0 1 663.4902 1119.6943)" fill="#FFFFFF" font-family="'Neon80s'" font-size="225">d</text>
	</g>
	<path clip-path="url(#SVGID_4_)" fill="#FEC053" d="M601.398,1019.099c0,0,3.156,2.5,6.906,8.155"/>
	<path clip-path="url(#SVGID_4_)" fill="#FEC053" d="M601.398,1019.099c0,0,3.156,2.5,6.906,8.155"/>
</g>
<rect x="620.105" y="1004.197" fill="#FEC053" width="46.781" height="21.375"/>
<g>
	<defs>
		<rect id="SVGID_5_" x="324.826" y="972.152" width="464.337" height="152.043"/>
	</defs>
	<clipPath id="SVGID_6_">
		<use xlink:href="#SVGID_5_"  overflow="visible"/>
	</clipPath>
	<path clip-path="url(#SVGID_6_)" fill="#FFFFFF" d="M625.227,1025.756c0,0-0.416-9.244,9-13.827c0,0,6.142-3.344,13.533,0.035
		c0,0,8.873,3.757,8.873,13.792"/>
</g>
<rect fill="#FFFFFF" width="841.89" height="124"/>
<rect x="35.945" y="38" fill="none" width="770" height="68"/>
<text transform="matrix(1 0 0 1 35.9453 85.5342)"><tspan x="0" y="0" fill="#585DA6" stroke="#585DA6" stroke-width="3" stroke-miterlimit="10" font-family="'Neon80s'" font-size="75">liberate</tspan><tspan x="256.421" y="0" fill="#585DA6" stroke="#585DA6" stroke-width="3" stroke-miterlimit="10" font-family="'Neon80s'" font-size="75" letter-spacing="11"> </tspan><tspan x="289.877" y="0" fill="#585DA6" stroke="#585DA6" stroke-width="3" stroke-miterlimit="10" font-family="'Neon80s'" font-size="75">+</tspan><tspan x="326.425" y="0" fill="#585DA6" stroke="#585DA6" stroke-width="3" stroke-miterlimit="10" font-family="'Neon80s'" font-size="75" letter-spacing="11"> </tspan><tspan x="359.88" y="0" fill="#585DA6" stroke="#585DA6" stroke-width="3" stroke-miterlimit="10" font-family="'Neon80s'" font-size="75">accumelate</tspan></text>
<line fill="none" stroke="#FEC053" stroke-width="10" stroke-miterlimit="10" x1="0" y1="124" x2="841.89" y2="124"/>
<line fill="none" stroke="#FFFFFF" stroke-width="10" stroke-miterlimit="10" x1="0" y1="1011.714" x2="841.89" y2="778.543"/>
<g>
	<defs>
		<rect id="SVGID_7_" x="-334" y="529.969" width="616.421" height="616.435"/>
	</defs>
	<clipPath id="SVGID_8_">
		<use xlink:href="#SVGID_7_"  overflow="visible"/>
	</clipPath>
	<path clip-path="url(#SVGID_8_)" fill="#585DA6" d="M-30.094,838.551c0.208,2.385,2.309,4.148,4.696,3.939
		c2.38-0.209,4.148-2.308,3.94-4.695c-0.208-2.376-2.315-4.138-4.694-3.931C-28.54,834.073-30.302,836.175-30.094,838.551"/>
	<path clip-path="url(#SVGID_8_)" fill="none" stroke="#FFF200" stroke-width="3.355" stroke-miterlimit="10" d="M-30.094,838.551
		c0.208,2.385,2.309,4.148,4.696,3.939c2.38-0.209,4.148-2.308,3.94-4.695c-0.208-2.376-2.315-4.138-4.694-3.931
		C-28.54,834.073-30.302,836.175-30.094,838.551z"/>
	<path clip-path="url(#SVGID_8_)" fill="none" stroke="#FCBF52" stroke-width="10.066" stroke-miterlimit="10" d="M-145.419,818.169
		c-51.186-42.948-57.842-119.238-14.893-170.426c42.942-51.179,119.232-57.868,170.418-14.915
		c51.174,42.944,57.864,119.255,14.919,170.438C-17.919,854.443-94.234,861.119-145.419,818.169z M-63.085,1045.181
		c-51.184-42.944-57.84-119.244-14.897-170.426c42.945-51.184,119.241-57.87,170.421-14.921
		c51.187,42.95,57.863,119.263,14.925,170.436C64.414,1081.463-11.897,1088.139-63.085,1045.181z M-48.204,955.791
		c-42.952,51.182-119.248,57.841-170.425,14.896c-51.182-42.944-57.868-119.242-14.927-170.425
		c42.949-51.178,119.269-57.87,170.453-14.922C-11.923,828.281-5.26,904.605-48.204,955.791z M178.806,873.451
		c-42.952,51.188-119.245,57.843-170.418,14.904C-42.8,845.403-49.494,769.113-6.542,717.928
		c42.951-51.181,119.263-57.861,170.443-14.913C215.08,745.957,221.756,822.268,178.806,873.451z M-124.623,907.55
		c-66.559,5.823-125.216-43.425-131.039-109.975c-5.823-66.562,43.392-125.237,109.952-131.061
		c66.56-5.821,125.25,43.412,131.073,109.975C-8.814,843.039-58.062,901.727-124.623,907.55z M94.123,1009.856
		C27.557,1015.68-31.101,966.43-36.922,899.878c-5.823-66.561,43.392-125.235,109.957-131.059
		c66.561-5.823,125.243,43.412,131.065,109.971C209.923,945.344,160.682,1004.033,94.123,1009.856z M41.434,936.117
		c5.823,66.552-43.42,125.216-109.974,131.037c-66.562,5.825-125.237-43.397-131.061-109.949
		c-5.823-66.564,43.411-125.25,109.974-131.072C-23.073,820.31,35.611,869.555,41.434,936.117z M143.734,717.375
		c5.822,66.561-43.421,125.219-109.973,131.042c-66.561,5.823-125.235-43.396-131.058-109.953
		c-5.824-66.564,43.411-125.244,109.971-131.067C79.227,601.574,137.911,650.813,143.734,717.375z"/>
	<path clip-path="url(#SVGID_8_)" fill="none" stroke="#FCBF52" stroke-width="80.01" stroke-miterlimit="10" d="M238.992,815.014
		c12.794,146.234-95.369,275.167-241.608,287.962c-146.233,12.793-275.161-95.396-287.955-241.631
		c-12.794-146.232,95.39-275.154,241.623-287.947C97.291,560.603,226.199,668.781,238.992,815.014z"/>
	<path clip-path="url(#SVGID_8_)" fill="#585DA6" d="M-9.845,841.888c0.75,8.561-5.589,16.116-14.152,16.863
		c-8.556,0.749-16.102-5.591-16.85-14.151c-0.75-8.566,5.581-16.111,14.138-16.858C-18.147,826.991-10.594,833.322-9.845,841.888"/>
	<path clip-path="url(#SVGID_8_)" fill="#FEC053" d="M-9.965,841.898c0.743,8.493-5.545,15.989-14.042,16.732
		c-8.49,0.743-15.977-5.55-16.719-14.041c-0.744-8.5,5.537-15.988,14.027-16.731C-18.203,827.118-10.709,833.398-9.965,841.898"/>
	<path clip-path="url(#SVGID_8_)" fill="none" stroke="#FEC053" stroke-width="15.24" stroke-miterlimit="10" d="M-9.965,841.898
		c0.743,8.493-5.545,15.989-14.042,16.732c-8.49,0.743-15.977-5.55-16.719-14.041c-0.744-8.5,5.537-15.988,14.027-16.731
		C-18.203,827.118-10.709,833.398-9.965,841.898z"/>
</g>
<path fill="#585DA6" d="M249.625,271.004l-0.125,61.667c0,0,1.25,25.829,7.25,34.454h104.375c0,0,6.208-7.291,7.042-35.125v-60.996
	H249.625z"/>
<rect x="250.334" y="268" fill="#585DA6" width="118.25" height="50.25"/>
</svg>
