<?xml version="1.0" encoding="utf-8"?>
<!-- Generator: Adobe Illustrator 16.0.0, SVG Export Plug-In . SVG Version: 6.00 Build 0)  -->
<!DOCTYPE svg PUBLIC "-//W3C//DTD SVG 1.1//EN" "http://www.w3.org/Graphics/SVG/1.1/DTD/svg11.dtd">
<svg version="1.1" id="Layer_1" xmlns="http://www.w3.org/2000/svg" xmlns:xlink="http://www.w3.org/1999/xlink" x="0px" y="0px"
	 width="841.89px" height="1190.55px" viewBox="0 0 841.89 1190.55" enable-background="new 0 0 841.89 1190.55"
	 xml:space="preserve">
<rect x="0" fill="#585DA6" width="841.89" height="1129.606"/>
<g>
	<defs>
		<rect id="SVGID_1_" x="388.194" y="356.811" width="227.446" height="227.45"/>
	</defs>
	<clipPath id="SVGID_2_">
		<use xlink:href="#SVGID_1_"  overflow="visible"/>
	</clipPath>
	<path clip-path="url(#SVGID_2_)" fill="#585DA6" d="M503.507,470.67c-0.078,0.88-0.854,1.531-1.734,1.455
		c-0.877-0.078-1.531-0.853-1.453-1.734c0.076-0.877,0.855-1.526,1.732-1.449C502.933,469.018,503.583,469.793,503.507,470.67"/>
	<path clip-path="url(#SVGID_2_)" fill="none" stroke="#FFF200" stroke-width="1.312" stroke-miterlimit="10" d="M503.507,470.67
		c-0.078,0.88-0.854,1.531-1.734,1.455c-0.877-0.078-1.531-0.853-1.453-1.734c0.076-0.877,0.855-1.526,1.732-1.449
		C502.933,469.018,503.583,469.793,503.507,470.67z"/>
	<path clip-path="url(#SVGID_2_)" fill="none" stroke="#FFFFFF" stroke-width="3.937" stroke-miterlimit="10" d="M483.169,457.652
		c-15.846-18.887-13.379-47.042,5.504-62.889c18.887-15.848,47.035-13.381,62.881,5.505c15.848,18.886,13.391,47.035-5.496,62.882
		C527.173,478.998,499.013,476.535,483.169,457.652z M452.788,541.409c-15.844-18.881-13.379-47.039,5.506-62.886
		s47.035-13.379,62.881,5.505s13.391,47.037-5.496,62.882C496.792,562.761,468.636,560.298,452.788,541.409z M515.687,451.038
		c18.885-15.847,47.045-13.377,62.892,5.506c15.846,18.884,13.379,47.036-5.508,62.881c-18.882,15.848-47.034,13.389-62.882-5.496
		C494.343,495.042,496.802,466.881,515.687,451.038z M431.927,420.661c18.885-15.847,47.041-13.382,62.889,5.502
		c15.85,18.887,13.379,47.037-5.51,62.884c-18.881,15.844-47.029,13.389-62.879-5.498
		C410.579,464.663,413.042,436.505,431.927,420.661z M497.804,447.772c2.146-24.561,23.803-42.727,48.361-40.578
		c24.56,2.148,42.719,23.798,40.571,48.358c-2.149,24.555-23.792,42.727-48.353,40.576
		C513.825,493.98,495.653,472.326,497.804,447.772z M417.093,485.517c2.148-24.558,23.803-42.725,48.361-40.575
		c24.561,2.148,42.721,23.798,40.572,48.356c-2.148,24.556-23.793,42.728-48.354,40.58
		C433.114,531.729,414.944,510.074,417.093,485.517z M525.472,466.088c24.561,2.148,42.727,23.802,40.578,48.362
		c-2.148,24.557-23.799,42.719-48.357,40.57c-24.557-2.148-42.727-23.795-40.58-48.351
		C479.263,482.111,500.915,463.94,525.472,466.088z M487.726,385.38c24.559,2.148,42.727,23.8,40.576,48.36
		c-2.148,24.559-23.799,42.718-48.357,40.572c-24.555-2.15-42.725-23.793-40.576-48.353S463.169,383.232,487.726,385.38z"/>
	<path clip-path="url(#SVGID_2_)" fill="none" stroke="#FCBF52" stroke-width="31.29" stroke-miterlimit="10" d="M404.22,461.987
		c-4.723,53.956,35.189,101.528,89.146,106.25c53.959,4.719,101.53-35.199,106.251-89.155
		c4.721-53.958-35.198-101.527-89.153-106.247C456.505,368.115,408.94,408.03,404.22,461.987z"/>
	<path clip-path="url(#SVGID_2_)" fill="#585DA6" d="M496.034,471.902c-0.275,3.158,2.062,5.945,5.223,6.223
		c3.156,0.275,5.941-2.064,6.217-5.223c0.277-3.161-2.059-5.945-5.217-6.22C499.097,466.405,496.31,468.741,496.034,471.902"/>
	<path clip-path="url(#SVGID_2_)" fill="#FEC053" stroke="#FEC053" stroke-width="5.96" stroke-miterlimit="10" d="M496.079,471.906
		c-0.275,3.133,2.045,5.898,5.182,6.174c3.133,0.273,5.895-2.047,6.168-5.182c0.275-3.136-2.043-5.899-5.176-6.172
		C499.118,466.452,496.353,468.77,496.079,471.906z"/>
</g>
<path fill="none" stroke="#FEC053" stroke-width="100" stroke-miterlimit="10" d="M525.603,248.568"/>
<path fill="none" stroke="#FFFFFF" stroke-width="130" stroke-miterlimit="10" d="M501.917,263.757
	c-114.199,0-206.779,92.579-206.779,206.779c0,114.201,92.58,206.779,206.779,206.779c114.202,0,206.78-92.578,206.78-206.779"/>
<text transform="matrix(-1 0 0 1 789.9346 378.0708)" fill="#FFFFFF" stroke="#FFFFFF" stroke-width="10" stroke-miterlimit="10" font-family="'Neon80s'" font-size="274.4794" letter-spacing="1">lu </text>
<g id="hYBqAm_1_">
	<g>
		<path fill="#FFFFFF" d="M551.739,278.752c0,0.412,0,0.824,0,1.235c1.782,5.015,5.913,6.858,10.661,7.573
			c4.356,0.656,8.766,1.346,13.155,1.351c71.621,0.083,143.245,0.117,214.868-0.05c5.876-0.013,11.817-1.247,17.6-2.507
			c3.924-0.855,5.922-3.844,5.922-6.986c0-3.14-2.119-5.702-5.902-7.086c-0.769-0.281-1.561-0.579-2.364-0.673
			c-5.493-0.644-10.992-1.754-16.49-1.764c-66.684-0.122-133.368-0.098-200.05-0.053c-7.19,0.005-14.411,0.039-21.561,0.685
			C561.34,271.042,554.592,271.378,551.739,278.752z"/>
	</g>
</g>
<g id="hYBqAm_2_">
	<g>
		<path fill="#FFFFFF" d="M551.739,316.836c0,0.412,0,0.823,0,1.235c1.782,5.015,5.913,6.859,10.661,7.573
			c4.356,0.656,8.766,1.347,13.155,1.352c71.621,0.083,143.244,0.117,214.868-0.05c5.875-0.014,11.816-1.247,17.599-2.507
			c3.925-0.855,5.923-3.843,5.923-6.985c-0.001-3.14-2.119-5.702-5.902-7.086c-0.769-0.281-1.561-0.579-2.364-0.673
			c-5.494-0.644-10.993-1.754-16.491-1.764c-66.683-0.122-133.367-0.098-200.051-0.053c-7.188,0.005-14.409,0.039-21.559,0.685
			C561.34,309.125,554.592,309.461,551.739,316.836z"/>
	</g>
</g>
<rect fill="#FFFFFF" width="841.89" height="124"/>
<rect x="35.945" y="38" fill="none" width="770" height="68"/>
<text transform="matrix(1 0 0 1 35.9453 85.5342)"><tspan x="0" y="0" fill="#585DA6" stroke="#585DA6" stroke-width="3" stroke-miterlimit="10" font-family="'Neon80s'" font-size="75">liberate</tspan><tspan x="256.421" y="0" fill="#585DA6" stroke="#585DA6" stroke-width="3" stroke-miterlimit="10" font-family="'Neon80s'" font-size="75" letter-spacing="11"> </tspan><tspan x="289.877" y="0" fill="#585DA6" stroke="#585DA6" stroke-width="3" stroke-miterlimit="10" font-family="'Neon80s'" font-size="75">+</tspan><tspan x="326.425" y="0" fill="#585DA6" stroke="#585DA6" stroke-width="3" stroke-miterlimit="10" font-family="'Neon80s'" font-size="75" letter-spacing="11"> </tspan><tspan x="359.88" y="0" fill="#585DA6" stroke="#585DA6" stroke-width="3" stroke-miterlimit="10" font-family="'Neon80s'" font-size="75">accumelate</tspan></text>
<line fill="none" stroke="#FEC053" stroke-width="10" stroke-miterlimit="10" x1="0" y1="124" x2="841.89" y2="124"/>
<g>
	<defs>
		
			<rect id="SVGID_3_" x="-324.878" y="537.706" transform="matrix(-0.9807 -0.1954 0.1954 -0.9807 -198.298 1672.2865)" width="616.422" height="616.435"/>
	</defs>
	<clipPath id="SVGID_4_">
		<use xlink:href="#SVGID_3_"  overflow="visible"/>
	</clipPath>
	<path clip-path="url(#SVGID_4_)" fill="#585DA6" d="M-20.96,845.439c-0.261,2.38,1.455,4.521,3.836,4.781
		c2.375,0.261,4.519-1.452,4.781-3.835c0.26-2.37-1.461-4.509-3.835-4.771C-18.561,841.353-20.7,843.069-20.96,845.439"/>
	<path clip-path="url(#SVGID_4_)" fill="none" stroke="#FFF200" stroke-width="3.355" stroke-miterlimit="10" d="M-20.96,845.439
		c-0.261,2.38,1.455,4.521,3.836,4.781c2.375,0.261,4.519-1.452,4.781-3.835c0.26-2.37-1.461-4.509-3.835-4.771
		C-18.561,841.353-20.7,843.069-20.96,845.439z"/>
	<path clip-path="url(#SVGID_4_)" fill="none" stroke="#FCBF52" stroke-width="10.066" stroke-miterlimit="10" d="M-130.08,802.918
		c-41.808-52.122-33.429-128.242,18.693-170.051c52.114-41.801,128.241-33.456,170.047,18.67
		C100.458,703.652,92.11,779.8,39.992,821.605C-12.125,863.404-88.273,855.041-130.08,802.918z M-93.688,1041.642
		c-41.806-52.118-33.426-128.248,18.69-170.053c52.117-41.805,128.249-33.455,170.052,18.665
		c41.809,52.124,33.446,128.271-18.664,170.066C24.264,1102.136-51.88,1093.772-93.688,1041.642z M-61.628,956.882
		c-52.124,41.803-128.251,33.427-170.051-18.689c-41.804-52.116-33.454-128.25,18.66-170.057
		c52.121-41.799,128.277-33.451,170.083,18.671C-1.132,838.92-9.511,915.075-61.628,956.882z M177.095,920.484
		C124.97,962.293,48.847,953.913,7.049,901.804c-41.81-52.126-33.468-128.254,18.657-170.061
		c52.123-41.802,128.269-33.443,170.072,18.678C237.58,802.534,229.218,878.679,177.095,920.484z M-127.148,894.64
		c-66.414-7.294-114.317-67.054-107.025-133.458c7.294-66.418,67.025-114.347,133.439-107.053
		c66.415,7.297,114.354,67.049,107.059,133.466C-0.967,854-60.733,901.934-127.148,894.64z M67.392,1037.715
		C0.971,1030.42-46.934,970.657-39.639,904.251c7.294-66.415,67.025-114.344,133.445-107.049
		c66.415,7.294,114.347,67.046,107.052,133.461C193.565,997.071,133.806,1045.009,67.392,1037.715z M30.126,955.102
		c-7.292,66.407-67.049,114.319-133.458,107.024c-66.417-7.293-114.344-67.031-107.052-133.438
		c7.295-66.419,67.047-114.354,133.464-107.058C-10.511,828.923,37.421,888.685,30.126,955.102z M173.195,760.564
		c-7.295,66.415-67.05,114.32-133.458,107.028c-66.415-7.294-114.342-67.029-107.048-133.44
		c7.294-66.42,67.045-114.349,133.46-107.055C132.556,634.391,180.489,694.147,173.195,760.564z"/>
	<path clip-path="url(#SVGID_4_)" fill="none" stroke="#FFFFFF" stroke-width="80.01" stroke-miterlimit="10" d="M247.539,874.933
		c-16.024,145.915-147.294,251.229-293.215,235.204C-191.591,1094.111-296.895,962.817-280.87,816.9
		c16.024-145.914,147.313-251.211,293.227-235.187C158.278,597.739,263.564,729.02,247.539,874.933z"/>
	<path clip-path="url(#SVGID_4_)" fill="#585DA6" d="M-1.753,852.669c-0.938,8.542-8.63,14.713-17.174,13.773
		c-8.537-0.938-14.699-8.629-13.76-17.172c0.938-8.547,8.621-14.709,17.159-13.77C-6.985,836.438-0.814,844.122-1.753,852.669"/>
	<path clip-path="url(#SVGID_4_)" fill="#FEC053" d="M-1.873,852.656c-0.931,8.475-8.563,14.598-17.042,13.666
		c-8.471-0.93-14.584-8.564-13.652-17.036c0.931-8.483,8.554-14.6,17.025-13.669C-7.063,836.551-0.942,844.175-1.873,852.656"/>
	<path clip-path="url(#SVGID_4_)" fill="none" stroke="#FEC053" stroke-width="15.24" stroke-miterlimit="10" d="M-1.873,852.656
		c-0.931,8.475-8.563,14.598-17.042,13.666c-8.471-0.93-14.584-8.564-13.652-17.036c0.931-8.483,8.554-14.6,17.025-13.669
		C-7.063,836.551-0.942,844.175-1.873,852.656z"/>
</g>
<circle fill="#FEC053" cx="58.945" cy="179" r="23"/>
<text transform="matrix(1 0 0 1 41.3506 496.4043)" fill="#FFFFFF" stroke="#FFFFFF" stroke-width="5" stroke-miterlimit="10" font-family="'Neon80s'" font-size="104.0435">lu </text>
<g id="hYBqAm_4_">
	<g>
		<path fill="#FFFFFF" d="M131.641,458.757c0,0.156,0,0.312,0,0.469c-0.675,1.901-2.24,2.6-4.04,2.871
			c-1.651,0.248-3.323,0.511-4.986,0.512c-27.149,0.031-54.299,0.044-81.448-0.019c-2.228-0.006-4.479-0.473-6.671-0.95
			c-1.487-0.325-2.245-1.458-2.245-2.648s0.804-2.161,2.237-2.686c0.292-0.106,0.592-0.22,0.896-0.256
			c2.082-0.244,4.167-0.665,6.25-0.669c25.277-0.046,50.555-0.036,75.831-0.02c2.725,0.002,5.463,0.015,8.173,0.259
			C128.003,455.834,130.561,455.961,131.641,458.757z"/>
	</g>
</g>
<g id="hYBqAm_3_">
	<g>
		<path fill="#FFFFFF" d="M131.641,473.192c0,0.157,0,0.312,0,0.469c-0.675,1.9-2.24,2.601-4.04,2.871
			c-1.651,0.249-3.323,0.51-4.986,0.512c-27.149,0.032-54.299,0.045-81.448-0.019c-2.227-0.005-4.479-0.473-6.671-0.951
			c-1.487-0.323-2.245-1.456-2.245-2.647c0-1.189,0.804-2.161,2.237-2.686c0.292-0.106,0.592-0.22,0.896-0.255
			c2.082-0.245,4.167-0.665,6.25-0.669c25.278-0.046,50.555-0.037,75.831-0.02c2.725,0.001,5.463,0.015,8.173,0.259
			C128.003,470.27,130.561,470.398,131.641,473.192z"/>
	</g>
</g>
<polygon fill="#FFFFFF" points="0,1011.755 0,1190.606 841.891,1190.606 841.89,778.637 "/>
<g>
	<defs>
		<rect id="SVGID_5_" x="324.826" y="972.152" width="464.337" height="152.043"/>
	</defs>
	<clipPath id="SVGID_6_">
		<use xlink:href="#SVGID_5_"  overflow="visible"/>
	</clipPath>
	<path clip-path="url(#SVGID_6_)" fill="#575EA6" d="M752.913,1087.943c-6.372,6.373-14.062,9.559-23.069,9.559
		c-9.011,0-16.684-3.166-23.019-9.502c-6.336-6.334-9.503-14.008-9.503-23.018c0-9.009,3.167-16.699,9.503-23.071
		c6.335-6.372,14.008-9.559,23.019-9.559c9.008,0,16.697,3.187,23.069,9.559c5.419,5.421,8.532,11.793,9.338,19.115v4.176
		c0,0.658,0.036,1.318,0.111,1.978C761.922,1075.238,758.773,1082.16,752.913,1087.943 M784.663,988.298
		c0-3.076-1.097-5.713-3.295-7.91s-4.834-3.295-7.911-3.295c-3.076,0-5.712,1.098-7.91,3.295c-2.195,2.197-3.296,4.834-3.296,7.91
		v32.3c-9.376-7.031-20.177-10.546-32.407-10.546c-15.162,0-28.09,5.346-38.783,16.04c-10.694,10.693-16.039,23.62-16.039,38.781
		c0,15.162,5.345,28.09,16.039,38.781c10.693,10.695,23.621,16.039,38.783,16.039c15.16,0,28.086-5.344,38.779-16.039
		c10.547-10.547,15.895-23.291,16.04-38.232V988.298z M648.829,995.769c2.198-2.197,3.296-4.834,3.296-7.91s-1.098-5.713-3.296-7.91
		c-2.196-2.197-4.834-3.296-7.909-3.296c-3.076,0-5.714,1.099-7.91,3.296c-2.197,2.197-3.297,4.834-3.297,7.91s1.1,5.713,3.297,7.91
		c2.196,2.198,4.834,3.296,7.91,3.296C643.995,999.064,646.633,997.967,648.829,995.769 M648.829,1116.398
		c2.198-2.197,3.296-4.834,3.296-7.91v-87.891c0-3.076-1.098-5.712-3.296-7.91c-2.196-2.197-4.834-3.296-7.909-3.296
		c-3.076,0-5.714,1.099-7.91,3.296c-2.197,2.198-3.297,4.834-3.297,7.91v87.891c0,3.076,1.1,5.713,3.297,7.91
		c2.196,2.197,4.834,3.297,7.91,3.297C643.995,1119.695,646.633,1118.596,648.829,1116.398 M601.436,1025.98
		c-10.621-10.618-23.512-15.929-38.672-15.929c-15.162,0-28.09,5.346-38.782,16.04c-10.695,10.693-16.04,23.619-16.04,38.781
		s5.345,28.09,16.04,38.781c10.692,10.695,23.62,16.041,38.782,16.041c15.16,0,28.051-5.31,38.672-15.932
		c0.072-0.07,0.145-0.145,0.22-0.219c2.196-2.197,3.295-4.834,3.295-7.909c0-3.077-1.099-5.696-3.295-7.856
		c-2.199-2.158-4.835-3.24-7.911-3.24s-5.676,1.062-7.8,3.186c-0.075,0.074-0.147,0.148-0.22,0.221
		c-6.373,6.299-14.027,9.447-22.961,9.447c-9.01,0-16.699-3.186-23.071-9.559c-6.372-6.371-9.559-14.062-9.559-23.071
		s3.187-16.681,9.559-23.017c6.372-6.334,14.062-9.503,23.071-9.503c9.009,0,16.662,3.149,22.961,9.447h0.108
		c2.124,2.198,4.726,3.297,7.802,3.297c3.002,0,5.584-1.079,7.746-3.241c2.158-2.159,3.239-4.741,3.239-7.745
		c0-3.075-1.062-5.675-3.185-7.8c-0.074,0-0.111-0.036-0.111-0.109L601.436,1025.98z M430.553,1119.695
		c15.454-0.879,28.163-6.299,38.124-16.26c10.545-10.547,15.893-23.291,16.039-38.233v-42.407c0-4.247-1.099-7.471-3.295-9.668
		c-2.199-2.197-4.834-3.296-7.91-3.296s-5.713,1.099-7.91,3.296s-3.297,5.348-3.297,9.448v42.407c0,0.659,0.037,1.319,0.11,1.978
		c-0.438,8.058-3.59,14.979-9.448,20.765c-6.373,6.373-14.062,9.559-23.07,9.559h-0.44c-9.008,0-16.699-3.186-23.071-9.559
		c-5.86-5.785-9.009-12.707-9.448-20.765c0.071-0.658,0.11-1.318,0.11-1.978v-42.407c0-4.101-1.099-7.251-3.296-9.448
		c-2.197-2.197-4.834-3.296-7.91-3.296c-3.078,0-5.713,1.099-7.912,3.296c-2.196,2.197-3.294,5.421-3.294,9.668v42.407
		c0.145,14.942,5.493,27.687,16.04,38.233c9.958,9.961,22.667,15.381,38.123,16.26H430.553z M340.532,977.531
		c-3.076,0-5.713,1.099-7.91,3.296c-2.197,2.197-3.296,4.834-3.296,7.91v119.751c0,3.076,1.099,5.713,3.296,7.91
		c2.197,2.197,4.834,3.297,7.91,3.297s5.713-1.1,7.91-3.297c2.197-2.197,3.296-4.834,3.296-7.91V988.737
		c0-3.076-1.099-5.713-3.296-7.91C346.245,978.63,343.608,977.531,340.532,977.531"/>
	<path clip-path="url(#SVGID_6_)" fill="none" stroke="#575EA6" stroke-width="9" d="M752.913,1087.943
		c-6.372,6.373-14.062,9.559-23.069,9.559c-9.011,0-16.684-3.166-23.019-9.502c-6.336-6.334-9.503-14.008-9.503-23.018
		c0-9.009,3.167-16.699,9.503-23.071c6.335-6.372,14.008-9.559,23.019-9.559c9.008,0,16.697,3.187,23.069,9.559
		c5.419,5.421,8.532,11.793,9.338,19.115v4.176c0,0.658,0.036,1.318,0.111,1.978C761.922,1075.238,758.773,1082.16,752.913,1087.943
		z M784.663,988.298c0-3.076-1.097-5.713-3.295-7.91s-4.834-3.295-7.911-3.295c-3.076,0-5.712,1.098-7.91,3.295
		c-2.195,2.197-3.296,4.834-3.296,7.91v32.3c-9.376-7.031-20.177-10.546-32.407-10.546c-15.162,0-28.09,5.346-38.783,16.04
		c-10.694,10.693-16.039,23.62-16.039,38.781c0,15.162,5.345,28.09,16.039,38.781c10.693,10.695,23.621,16.039,38.783,16.039
		c15.16,0,28.086-5.344,38.779-16.039c10.547-10.547,15.895-23.291,16.04-38.232V988.298z M648.829,995.769
		c2.198-2.197,3.296-4.834,3.296-7.91s-1.098-5.713-3.296-7.91c-2.196-2.197-4.834-3.296-7.909-3.296
		c-3.076,0-5.714,1.099-7.91,3.296c-2.197,2.197-3.297,4.834-3.297,7.91s1.1,5.713,3.297,7.91c2.196,2.198,4.834,3.296,7.91,3.296
		C643.995,999.064,646.633,997.967,648.829,995.769z M648.829,1116.398c2.198-2.197,3.296-4.834,3.296-7.91v-87.891
		c0-3.076-1.098-5.712-3.296-7.91c-2.196-2.197-4.834-3.296-7.909-3.296c-3.076,0-5.714,1.099-7.91,3.296
		c-2.197,2.198-3.297,4.834-3.297,7.91v87.891c0,3.076,1.1,5.713,3.297,7.91c2.196,2.197,4.834,3.297,7.91,3.297
		C643.995,1119.695,646.633,1118.596,648.829,1116.398z M601.436,1025.98c-10.621-10.618-23.512-15.929-38.672-15.929
		c-15.162,0-28.09,5.346-38.782,16.04c-10.695,10.693-16.04,23.619-16.04,38.781s5.345,28.09,16.04,38.781
		c10.692,10.695,23.62,16.041,38.782,16.041c15.16,0,28.051-5.31,38.672-15.932c0.072-0.07,0.145-0.145,0.22-0.219
		c2.196-2.197,3.295-4.834,3.295-7.909c0-3.077-1.099-5.696-3.295-7.856c-2.199-2.158-4.835-3.24-7.911-3.24s-5.676,1.062-7.8,3.186
		c-0.075,0.074-0.147,0.148-0.22,0.221c-6.373,6.299-14.027,9.447-22.961,9.447c-9.01,0-16.699-3.186-23.071-9.559
		c-6.372-6.371-9.559-14.062-9.559-23.071s3.187-16.681,9.559-23.017c6.372-6.334,14.062-9.503,23.071-9.503
		c9.009,0,16.662,3.149,22.961,9.447h0.108c2.124,2.198,4.726,3.297,7.802,3.297c3.002,0,5.584-1.079,7.746-3.241
		c2.158-2.159,3.239-4.741,3.239-7.745c0-3.075-1.062-5.675-3.185-7.8c-0.074,0-0.111-0.036-0.111-0.109L601.436,1025.98z
		 M430.553,1119.695c15.454-0.879,28.163-6.299,38.124-16.26c10.545-10.547,15.893-23.291,16.039-38.233v-42.407
		c0-4.247-1.099-7.471-3.295-9.668c-2.199-2.197-4.834-3.296-7.91-3.296s-5.713,1.099-7.91,3.296s-3.297,5.348-3.297,9.448v42.407
		c0,0.659,0.037,1.319,0.11,1.978c-0.438,8.058-3.59,14.979-9.448,20.765c-6.373,6.373-14.062,9.559-23.07,9.559h-0.44
		c-9.008,0-16.699-3.186-23.071-9.559c-5.86-5.785-9.009-12.707-9.448-20.765c0.071-0.658,0.11-1.318,0.11-1.978v-42.407
		c0-4.101-1.099-7.251-3.296-9.448c-2.197-2.197-4.834-3.296-7.91-3.296c-3.078,0-5.713,1.099-7.912,3.296
		c-2.196,2.197-3.294,5.421-3.294,9.668v42.407c0.145,14.942,5.493,27.687,16.04,38.233c9.958,9.961,22.667,15.381,38.123,16.26
		H430.553z M340.532,977.531c-3.076,0-5.713,1.099-7.91,3.296c-2.197,2.197-3.296,4.834-3.296,7.91v119.751
		c0,3.076,1.099,5.713,3.296,7.91c2.197,2.197,4.834,3.297,7.91,3.297s5.713-1.1,7.91-3.297c2.197-2.197,3.296-4.834,3.296-7.91
		V988.737c0-3.076-1.099-5.713-3.296-7.91C346.245,978.63,343.608,977.531,340.532,977.531z"/>
	<g clip-path="url(#SVGID_6_)">
		<text transform="matrix(1 0 0 1 663.4902 1119.6943)" fill="#575EA6" font-family="'Neon80s'" font-size="225">d</text>
	</g>
	<path clip-path="url(#SVGID_6_)" fill="#FEC053" d="M601.398,1019.099c0,0,3.156,2.5,6.906,8.155"/>
	<path clip-path="url(#SVGID_6_)" fill="#FFFFFF" d="M601.398,1019.099c0,0,3.156,2.5,6.906,8.155"/>
</g>
<rect x="620.105" y="1004.197" fill="#FFFFFF" width="46.781" height="21.375"/>
<g>
	<defs>
		<rect id="SVGID_7_" x="324.826" y="972.152" width="464.337" height="152.043"/>
	</defs>
	<clipPath id="SVGID_8_">
		<use xlink:href="#SVGID_7_"  overflow="visible"/>
	</clipPath>
	<path clip-path="url(#SVGID_8_)" fill="#575EA6" d="M625.227,1025.756c0,0-0.416-9.244,9-13.827c0,0,6.142-3.344,13.533,0.035
		c0,0,8.873,3.757,8.873,13.792"/>
</g>
<line fill="none" stroke="#FCBF52" stroke-width="10.066" stroke-miterlimit="10" x1="0" y1="1011.714" x2="841.89" y2="778.543"/>
</svg>
